# Wavefront OBJ
# Created by fragMOTION
# http://www.fragmosoft.com

mtllib stam.mtl
# 29 vertices
v -5.07248 -1.85211 6.64759
v -7.58356 -1.26206 0.552538
v -3.88971 -1.28533 -4.87778
v 2.31522 -1.89866 -4.21304
v 4.82631 -2.48873 1.88201
v 1.13245 -2.46545 7.31233
v 3.83335 64.2034 3.67737
v 1.82542 64.6752 -1.19638
v 4.77912 64.6566 -5.5386
v 9.74073 64.1662 -5.00705
v 11.7487 63.6944 -0.133301
v 8.79496 63.713 4.20891
v 15.77 129.791 7.65525
v 13.9753 130.212 3.2991
v 16.6153 130.196 -0.581969
v 21.05 129.757 -0.106876
v 22.8447 129.336 4.24928
v 20.2047 129.352 8.13034
v 30.5936 195.555 14.6802
v 30.1339 195.956 8.58205
v 35.7071 195.523 7.16282
v 36.1669 195.123 13.2609
v 45.2802 244.812 18.8296
v 44.9504 245.079 14.4465
v 48.9515 244.879 13.4389
v 49.2812 244.612 17.822
v 67.8823 326.669 12.0589
v 69.9893 326.244 8.81567
v 72.2685 325.99 13.0579
# 10 texture vertices
vt 0.866612 0.021639
vt 0.812837 0.021639
vt 0.812837 0.985298
vt 0.756317 0.021639
vt 0.756317 0.985298
vt 0.702541 0.021639
vt 0.702541 0.985298
vt 0.866612 0.985298
vt 0.784578 0.985298
vt 0.784578 0.021639
# 29 normals
vn -0.729339 0.128547 0.671968
vn -0.953437 0.128818 -0.272697
vn -0.234159 0.0210425 -0.971971
vn 0.734966 -0.0906849 -0.672012
vn 0.957255 -0.0917704 0.2743
vn 0.237647 0.0180273 0.971184
vn -0.588907 0.0969134 0.802369
vn -0.980745 0.170851 -0.094596
vn -0.414321 0.0933217 -0.905334
vn 0.592581 -0.0690545 -0.802546
vn 0.984856 -0.144388 0.0959767
vn 0.417013 -0.0652177 0.906558
vn -0.628507 0.0769666 0.773987
vn -0.97884 0.204057 0.0152977
vn -0.460198 0.177561 -0.869879
vn 0.631828 -0.055124 -0.773146
vn 0.983423 -0.180752 -0.0144244
vn 0.46261 -0.159012 0.872185
vn -0.619921 0.0986268 0.778441
vn -0.803556 0.272556 -0.529161
vn 0.627457 -0.0625772 -0.776132
vn 0.812087 -0.234354 0.534409
vn -0.36379 0.079015 0.928124
vn -0.854183 0.252914 -0.45432
vn 0.502878 -0.0960243 -0.859007
vn 0.754126 -0.189436 0.628814
vn -0.733129 0.259231 0.628746
vn -0.101436 -0.0136321 -0.994749
vn 0.940189 -0.238989 0.242752
usemtl Texture
g stam
s 1
f 1/1/1 8/3/8 2/2/2
f 2/2/2 9/5/9 3/4/3
f 3/4/3 10/7/10 4/6/4
f 4/6/4 11/5/11 5/4/5
f 5/4/5 12/3/12 6/2/6
f 6/2/6 7/8/7 1/1/1
f 6/2/6 12/3/12 7/8/7
f 7/8/7 8/3/8 1/1/1
f 7/1/7 14/3/14 8/2/8
f 8/3/8 9/5/9 2/2/2
f 8/2/8 15/5/15 9/4/9
f 9/5/9 10/7/10 3/4/3
f 9/4/9 16/7/16 10/6/10
f 10/7/10 11/5/11 4/6/4
f 10/6/10 17/5/17 11/4/11
f 11/5/11 12/3/12 5/4/5
f 11/4/11 18/3/18 12/2/12
f 12/2/12 13/8/13 7/1/7
f 12/2/12 18/3/18 13/8/13
f 13/8/13 14/3/14 7/1/7
f 13/1/13 20/9/20 14/2/14
f 14/3/14 15/5/15 8/2/8
f 14/2/14 20/9/20 15/4/15
f 15/5/15 16/7/16 9/4/9
f 15/4/15 21/7/21 16/6/16
f 16/7/16 17/5/17 10/6/10
f 16/6/16 22/9/22 17/4/17
f 17/5/17 18/3/18 11/4/11
f 17/4/17 22/9/22 18/2/18
f 18/2/18 19/8/19 13/1/13
f 18/2/18 22/9/22 19/8/19
f 19/8/19 20/9/20 13/1/13
f 19/1/19 24/9/24 20/10/20
f 20/9/20 21/7/21 15/4/15
f 20/10/20 25/7/25 21/6/21
f 21/7/21 22/9/22 16/6/16
f 21/6/21 26/9/26 22/10/22
f 22/10/22 23/8/23 19/1/19
f 22/10/22 26/9/26 23/8/23
f 23/8/23 24/9/24 19/1/19
f 23/1/23 27/8/27 24/10/24
f 24/9/24 25/7/25 20/10/20
f 24/10/24 28/7/28 25/6/25
f 25/7/25 26/9/26 21/6/21
f 25/6/25 29/9/29 26/10/26
f 26/10/26 27/8/27 23/1/23
f 26/10/26 29/9/29 27/8/27
f 27/8/27 28/7/28 24/10/24
f 28/7/28 29/9/29 25/6/25
