# Wavefront OBJ
# Created by fragMOTION
# http://www.fragmosoft.com

mtllib stam.mtl
# 54 vertices
v 3.58753 0.267294 -0.483504
v 1.47058 31.3953 -5.44418
v 4.28926 31.3962 -0.489424
v 0.751361 0.266322 -6.26113
v 0.751361 0.266322 -6.26113
v -3.46666 30.5377 -5.4441
v 1.47058 31.3953 -5.44418
v -5.58645 0.266453 -7.08411
v -5.58523 29.6808 -0.489265
v -9.10562 0.267714 -1.30659
v -2.74903 29.6815 3.62512
v -6.28695 0.268526 3.63066
v 2.1707 30.5392 3.62504
v 0.050866 0.268395 4.45364
v -2.04582 91.1151 -2.96951
v 0.055021 90.2403 0.30465
v -6.28275 90.2399 -2.96942
v -2.04582 91.1151 -2.96951
v -8.40129 89.3828 0.30467
v -6.2829 89.3833 3.61368
v -2.04601 89.3831 3.61375
v 0.296285 136.373 -0.760257
v 0.745174 136.373 -0.122859
v -0.391261 136.706 -0.441637
v 0.296285 136.373 -0.760257
v -0.624245 136.706 0.18897
v -0.391283 136.706 0.833146
v 0.296258 136.374 0.833221
v 1.1138 134.486 -3.22078
v 1.17883 134.482 -3.12217
v 3.2991 134.362 -0.586213
v -2.36887 134.719 -1.97863
v -3.44223 134.804 0.474791
v -2.14316 134.704 -1.98003
v 1.1138 134.486 -3.22078
v -3.54564 134.812 0.643568
v -2.47066 134.759 3.14737
v -2.36215 134.753 3.31771
v 1.00018 134.536 3.3108
v 3.23404 134.367 -0.480645
v 1.12029 134.528 3.31086
v 0.934087 117.387 -3.54596
v 1.91832 117.161 -2.03337
v 3.36092 116.86 -0.284342
v -3.27095 117.89 -2.67971
v -4.02732 117.883 -0.965855
v -1.29451 117.629 -2.69495
v 0.934087 117.387 -3.54596
v -4.96938 117.911 0.564019
v -4.23085 117.703 2.3255
v -3.2721 117.48 3.85473
v -0.946347 117.171 3.85095
v 2.42631 116.889 1.22809
v 0.95768 116.919 3.85268
# 54 texture vertices
vt 0.337896 0.007813
vt 0.369146 0.316406
vt 0.369146 0.007813
vt 0.337896 0.316406
vt 0.369146 0.539063
vt 0.310553 0.007813
vt 0.310553 0.316406
vt 0.337896 0.539063
vt 0.193365 0.007813
vt 0.224615 0.316406
vt 0.224615 0.007813
vt 0.193365 0.316406
vt 0.224615 0.539063
vt 0.251959 0.539063
vt 0.251959 0.316406
vt 0.251959 0.007813
vt 0.283209 0.539063
vt 0.283209 0.316406
vt 0.283209 0.007813
vt 0.310553 0.539063
vt 0.369146 0.735958
vt 0.368203 0.736062
vt 0.369146 0.742188
vt 0.337896 0.735523
vt 0.337018 0.735668
vt 0.337896 0.742188
vt 0.193365 0.539063
vt 0.224615 0.731374
vt 0.222909 0.731104
vt 0.224615 0.742188
vt 0.224615 0.658362
vt 0.24067 0.658332
vt 0.251959 0.731961
vt 0.250552 0.731741
vt 0.251959 0.742188
vt 0.251959 0.659943
vt 0.270435 0.659157
vt 0.283209 0.731709
vt 0.2816 0.731734
vt 0.283209 0.742188
vt 0.283209 0.658317
vt 0.299572 0.660619
vt 0.310553 0.73637
vt 0.309774 0.736403
vt 0.310553 0.742188
vt 0.356355 0.659051
vt 0.337896 0.657863
vt 0.326769 0.659529
vt 0.310553 0.659642
vt 0.211317 0.655752
vt 0.193365 0.658332
vt 0.369146 0.658332
vt 0.193365 0.742188
vt 0.193365 0.735958
# 54 normals
vn 0.990616 -0.0180773 -0.135474
vn 0.878969 0.0142266 -0.476666
vn 0.999774 0.0210197 -0.00305676
vn 0.897638 -0.00917535 -0.440638
vn 0.0621669 0.0355831 -0.997431
vn -0.509929 0.0283759 -0.859748
vn -0.00673835 0.0361078 -0.999325
vn -0.653135 0.097758 -0.750904
vn -0.996938 0.0289434 0.0726385
vn -0.971262 0.11596 0.207856
vn -0.476288 0.0263124 0.878895
vn -0.370493 0.0523823 0.927357
vn 0.486764 0.0203074 0.873298
vn 0.614733 -0.0125818 0.788635
vn 0.844896 -0.0179893 -0.534628
vn 0.997761 -0.0367894 0.0558517
vn -0.431577 0.0489239 -0.900748
vn -0.123571 0.0240261 -0.992045
vn -0.995115 0.0499429 -0.0851573
vn -0.541923 0.0094233 0.840375
vn 0.417803 -0.0244139 0.90821
vn 0.568507 0.732658 -0.374182
vn 0.620449 0.783278 -0.0389771
vn -0.312527 0.765653 -0.56223
vn -0.121843 0.695596 -0.708026
vn -0.557901 0.829045 -0.0378312
vn -0.1519 0.881754 0.446583
vn 0.437774 0.786842 0.435011
vn 0.773403 0.395115 -0.495714
vn 0.747911 0.404132 -0.526599
vn 0.904568 0.372901 -0.206645
vn -0.585683 0.381853 -0.714957
vn -0.780615 0.463582 -0.419204
vn -0.102025 0.372474 -0.922417
vn -0.324574 0.284255 -0.902137
vn -0.89923 0.436366 0.0311453
vn -0.761544 0.500499 0.411766
vn -0.29948 0.423648 0.854888
vn 0.092639 0.461043 0.882529
vn 0.802353 0.391282 0.450697
vn 0.59529 0.383424 0.706127
vn 0.834198 -0.0342591 -0.5504
vn 0.799559 -0.0558097 -0.597988
vn 0.996385 -0.0454513 0.071772
vn -0.433818 0.062351 -0.89884
vn -0.881903 0.0872412 -0.463289
vn -0.182045 0.0213513 -0.983058
vn -0.354706 0.0206187 -0.934751
vn -0.979672 0.0976825 -0.175219
vn -0.880267 0.0816878 0.467393
vn -0.570624 0.0520508 0.81956
vn 0.00189071 0.0110903 0.999937
vn 0.861746 -0.043365 0.505483
vn 0.401698 -0.00896657 0.915728
usemtl Texture
g stam
s 1
f 1/1/1 4/3/4 2/2/2
f 2/2/2 3/4/3 1/1/1
f 2/2/2 15/5/15 3/4/3
f 3/4/3 14/6/14 1/1/1
f 3/4/3 16/8/16 13/7/13
f 5/9/5 8/11/8 6/10/6
f 6/10/6 7/12/7 5/9/5
f 6/10/6 17/13/17 7/12/7
f 6/10/6 19/14/19 17/13/17
f 8/11/8 9/15/9 6/10/6
f 8/11/8 10/16/10 9/15/9
f 9/15/9 19/14/19 6/10/6
f 9/15/9 20/17/20 19/14/19
f 10/16/10 11/18/11 9/15/9
f 10/16/10 12/19/12 11/18/11
f 11/18/11 20/17/20 9/15/9
f 11/18/11 21/20/21 20/17/20
f 12/19/12 13/7/13 11/18/11
f 12/19/12 14/6/14 13/7/13
f 13/7/13 14/6/14 3/4/3
f 13/7/13 21/20/21 11/18/11
f 15/5/15 16/8/16 3/4/3
f 29/21/29 22/23/22 30/22/30
f 16/8/16 21/20/21 13/7/13
f 31/24/31 23/26/23 40/25/40
f 17/13/17 18/27/18 7/12/7
f 32/28/32 24/30/24 34/29/34
f 45/31/45 17/13/17 46/32/46
f 36/33/36 26/35/26 33/34/33
f 49/36/49 19/14/19 50/37/50
f 38/38/38 27/40/27 37/39/37
f 51/41/51 20/17/20 52/42/52
f 41/43/41 28/45/28 39/44/39
f 43/46/43 44/47/44 16/8/16
f 53/48/53 54/49/54 21/20/21
f 47/50/47 48/51/48 18/27/18
f 30/22/30 43/46/43 42/52/42
f 30/22/30 42/52/42 29/21/29
f 40/25/40 53/48/53 44/47/44
f 40/25/40 44/47/44 31/24/31
f 34/29/34 47/50/47 45/31/45
f 34/29/34 45/31/45 32/28/32
f 33/34/33 26/35/26 24/30/24
f 33/34/33 24/30/24 32/28/32
f 46/32/46 17/13/17 19/14/19
f 46/32/46 19/14/19 49/36/49
f 37/39/37 27/40/27 26/35/26
f 37/39/37 26/35/26 36/33/36
f 37/39/37 50/37/50 51/41/51
f 37/39/37 51/41/51 38/38/38
f 39/44/39 28/45/28 27/40/27
f 39/44/39 27/40/27 38/38/38
f 52/42/52 20/17/20 21/20/21
f 52/42/52 21/20/21 54/49/54
f 30/22/30 22/23/22 23/26/23
f 30/22/30 23/26/23 31/24/31
f 40/25/40 23/26/23 28/45/28
f 40/25/40 28/45/28 41/43/41
f 34/29/34 24/30/24 25/53/25
f 34/29/34 25/53/25 35/54/35
f 46/32/46 33/34/33 32/28/32
f 46/32/46 32/28/32 45/31/45
f 50/37/50 37/39/37 36/33/36
f 50/37/50 36/33/36 49/36/49
f 52/42/52 39/44/39 38/38/38
f 52/42/52 38/38/38 51/41/51
f 43/46/43 30/22/30 31/24/31
f 43/46/43 31/24/31 44/47/44
f 53/48/53 40/25/40 41/43/41
f 53/48/53 41/43/41 54/49/54
f 47/50/47 34/29/34 35/54/35
f 47/50/47 35/54/35 48/51/48
f 43/46/43 16/8/16 15/5/15
f 43/46/43 15/5/15 42/52/42
f 53/48/53 21/20/21 16/8/16
f 53/48/53 16/8/16 44/47/44
f 47/50/47 18/27/18 17/13/17
f 47/50/47 17/13/17 45/31/45
f 49/36/49 36/33/36 33/34/33
f 49/36/49 33/34/33 46/32/46
f 50/37/50 19/14/19 20/17/20
f 50/37/50 20/17/20 51/41/51
f 54/49/54 41/43/41 39/44/39
f 54/49/54 39/44/39 52/42/52
