# Wavefront OBJ
# Created by fragMOTION
# http://www.fragmosoft.com

mtllib blad.mtl
# 224 vertices
v -15.1579 149.832 15.5266
v -0.037094 162.084 -0.162613
v -4.0688 153.29 4.03923
v -12.1156 165.079 12.327
v -8.77757 162.189 8.94444
v 0.004402 162.03 -0.143253
v -16.1263 155.071 -0.890833
v -15.1164 149.779 15.546
v 1.32752 155.127 15.9749
v 15.3597 152.272 -16.0046
v -0.256836 163.171 0.189117
v 4.14359 154.748 -4.38789
v 11.6708 167.22 -12.147
v 8.46265 164.046 -8.89658
v -0.296005 163.116 0.1674
v 16.1185 156.827 0.626274
v 15.3206 152.218 -16.0263
v -1.33756 156.871 -16.2372
v 14.5084 146.289 14.4491
v -0.31044 160.212 -0.091555
v 3.34788 150.988 3.48374
v 12.204 161.835 12.2213
v 8.6983 159.327 8.70639
v -0.293716 160.16 -0.135775
v -1.59694 152.391 15.5851
v 14.5251 146.236 14.4049
v 15.4226 152.434 -1.71887
v -15.1061 147.794 -17.0836
v 0.023911 157.762 0.138777
v -3.8302 149.663 -5.41139
v -12.4783 162.38 -11.403
v -9.01813 159.072 -8.57157
v 0.006195 157.701 0.17008
v 1.11901 153.678 -16.9113
v -15.1239 147.733 -17.0523
v -15.8625 150.127 0.062517
v 0.039772 137.195 -27.645
v 0.058968 150.709 0.251101
v 0.041519 140.265 -7.62191
v 0.072144 155.731 -21.0267
v 0.010399 151.795 -15.3639
v 0.005318 150.641 0.265474
v 15.042 142.843 -13.4642
v -0.013878 137.127 -27.6307
v -15.0543 142.897 -13.47
v 25.5124 129.776 0.252388
v -0.230614 147.04 0.046928
v 6.1122 135.603 0.084835
v 21.538 149.052 0.250072
v 15.3834 145.942 0.134611
v -0.253784 146.976 -0.006924
v 12.1253 137.342 15.1383
v 25.4892 129.711 0.198536
v 12.4012 137.396 -14.9567
v -28.0648 131.641 -2.36498
v 0.266014 144.002 -0.035625
v -7.95255 133.959 -1.66643
v -20.8276 149.729 0.438478
v -15.3022 145.626 -0.016499
v 0.277184 143.926 0.007553
v -13.4437 138.938 -16.1872
v -28.0533 131.566 -2.3218
v -13.9701 134.534 13.5806
v -0.021149 134.17 26.7671
v -0.048004 149.361 -0.251915
v -0.024864 138.457 6.96888
v -0.063499 153.075 21.2928
v 0.000252 149.492 15.4003
v 0.005684 149.295 -0.27039
v -15.0266 140.665 12.9574
v 0.032539 134.103 26.7486
v 15.0696 140.735 12.967
v 21.4262 110.024 -21.0426
v -0.041458 130.224 0.085058
v 5.23743 116.842 -5.13108
v 18.1361 132.578 -17.7564
v 12.9487 128.939 -12.7601
v -0.105186 130.148 0.059677
v 22.6661 118.877 2.34817
v 21.3624 109.948 -21.068
v -2.00366 118.939 -22.7781
v -25.0644 112.207 21.1171
v 0.301117 126.668 -0.394119
v -7.8474 114.919 5.05604
v -16.7577 133.369 17.4492
v -12.5629 128.569 12.5015
v 0.346077 126.58 -0.367628
v -24.4037 120.743 -2.41434
v -25.0193 112.118 21.1436
v -0.211739 115.592 22.6485
v 22.238 115.165 22.0179
v -0.137627 132.94 -0.313265
v 5.85539 120.181 5.64146
v 17.6738 137.285 17.5238
v 12.8516 133.092 12.5961
v -0.108482 132.862 -0.372959
v -1.60133 122.765 23.007
v 22.2671 115.087 21.9582
v 23.3056 122.847 -1.88413
v -22.7278 118.704 -23.0486
v 0.367027 134.516 0.014393
v -6.16087 122.297 -6.48464
v -17.2255 140.392 -17.5999
v -12.5917 135.786 -12.864
v 0.334534 134.437 0.070669
v 1.41579 125.313 -23.7283
v -22.7603 118.625 -22.9924
v -23.4881 125.377 1.16616
v -0.185402 87.6422 -35.4942
v 0.150398 111.418 -0.04421
v 0.050156 95.667 -8.77846
v -0.093071 114.188 -30.022
v -0.104126 109.905 -21.5449
v 0.076813 111.328 -0.011011
v 20.6325 98.0625 -17.4195
v -0.258995 87.5527 -35.461
v -20.8113 98.1357 -17.0762
v -2.50155 90.2112 38.3378
v 0.024803 107.233 -0.726044
v -2.02309 93.4036 10.6292
v 1.18454 115.119 28.306
v 0.425308 109.47 20.7091
v 0.083984 107.129 -0.742451
v -21.8845 100.259 18.5387
v -2.44237 90.1076 38.3214
v 19.1148 94.1956 18.5481
v 36.9362 93.6933 -0.974813
v -0.265457 114.614 -0.288475
v 9.67616 99.5972 -0.493874
v 29.3993 119.728 -0.784929
v 21.2845 114.793 -0.731089
v -0.292183 114.522 -0.361948
v 18.2822 102.638 20.0178
v 36.9093 93.6015 -1.04829
v 17.5721 102.735 -21.4213
v -37.9848 97.8591 0.249031
v 0.424561 116.47 -0.447844
v -10.4152 102.088 -0.234604
v -28.8726 123.385 0.045401
v -21.0743 117.964 -0.00568
v 0.445648 116.377 -0.374321
v -18.8199 105.637 -20.748
v -37.9636 97.766 0.322556
v -18.1045 105.713 20.6911
v 34.2507 58.9466 38.7219
v -0.519066 81.8541 -0.856316
v 8.33796 63.2428 11.8983
v 28.2118 92.4677 25.6675
v 20.2602 84.8652 19.1607
v -0.478363 81.7145 -0.928251
v -3.03567 72.4693 38.3258
v 34.2916 58.8073 38.6499
v 35.9891 64.3088 -0.68107
v -33.8054 55.4892 -33.7423
v 0.249306 87.4862 -0.326998
v -8.15776 66.2889 -8.54328
v -28.5097 91.2145 -28.6227
v -20.4534 85.4508 -20.5453
v 0.210861 87.3659 -0.225368
v 3.20576 69.5129 -36.3527
v -33.844 55.3689 -33.6408
v -35.9061 69.6116 3.41269
v -35.7618 69.2391 36.2422
v 0.126091 94.2848 -0.971996
v -9.98634 74.9298 9.54628
v -27.2844 103.592 27.3771
v -19.9119 96.2966 19.9075
v 0.216125 94.1596 -0.922092
v -37.5053 79.7072 -1.97661
v -35.6718 69.1139 36.2922
v 2.60967 79.8082 36.7769
v 34.3697 63.6327 -36.2185
v -0.378883 91.7878 -0.163702
v 8.88628 71.578 -9.81982
v 27.3783 98.6699 -28.8659
v 19.7073 92.0291 -21.0923
v -0.474236 91.6644 -0.208187
v 36.5953 75.6706 1.50981
v 34.2743 63.5093 -36.2632
v -3.51482 75.8007 -37.2487
v -0.023048 44.9889 54.3353
v -0.543861 71.7878 -0.980503
v -0.373024 51.0779 14.6309
v -0.201775 81.7461 41.2121
v -0.17733 73.9404 29.9821
v -0.437729 71.6536 -1.00994
v -30.0168 56.1897 26.4755
v 0.083076 44.8547 54.3061
v 29.6623 56.2979 25.9658
v -0.843857 38.99 -53.5616
v -0.323044 69.1157 0.015093
v -0.493889 47.4913 -14.3028
v -0.665146 76.4796 -42.7068
v -0.68959 69.374 -31.0213
v -0.429192 68.9838 0.05265
v 29.1498 51.8706 -26.4374
v -0.950005 38.8579 -53.5242
v -30.5291 52.0097 -25.9354
v -0.405754 187.825 -0.203613
v -0.353088 150.767 -0.392008
v -0.41349 167.729 -15.4174
v -0.287949 168.361 14.8145
v -0.596581 187.825 -0.387737
v -0.408188 150.767 -0.335081
v 14.6172 167.729 -0.395485
v -15.6147 168.361 -0.269938
v 55.2687 33.9759 3.72033
v -0.949471 58.487 -0.408363
v 15.3756 38.5727 2.68319
v 40.8697 69.8434 -1.7135
v 29.9209 61.7086 -0.715698
v -0.972359 58.3376 -0.493792
v 26.5154 48.445 31.3819
v 55.2458 33.8267 3.63492
v 27.0442 39.7134 -27.6548
v -52.0712 30.8663 -0.542587
v -1.02064 65.1031 -0.580656
v -13.5987 42.422 -0.546061
v -44.19 69.0923 -0.606775
v -31.9836 62.9253 -0.484331
v -0.973763 64.9743 -0.47427
v -25.7829 45.8716 -30.2923
v -52.024 30.7375 -0.436199
v -25.8091 45.9772 29.3892
# 5 texture vertices
vt 0.552734 0.987793
vt 0.552734 0.012207
vt 0.121525 0.5
vt 0.983943 0.5
vt 0.552734 0.5
# 224 normals
vn -0.719117 -0.0023338 -0.694885
vn -0.719117 -0.0023338 -0.694885
vn -0.719117 -0.00233467 -0.694885
vn -0.719118 -0.00233292 -0.694884
vn -0.317762 0.890419 0.325855
vn 0.00705201 0.999918 -0.0106527
vn -0.640437 0.76437 -0.074696
vn -0.560254 0.593517 0.5778
vn 0.09403 0.766751 0.635021
vn 0.719206 -0.00181337 0.694795
vn 0.719206 -0.00181337 0.694795
vn 0.719206 -0.00181349 0.694795
vn 0.719206 -0.00181326 0.694795
vn 0.279068 0.916541 -0.286484
vn -0.049818 0.997288 0.0541683
vn 0.607215 0.787094 0.1085
vn 0.533806 0.641539 -0.550889
vn -0.127343 0.788944 -0.601124
vn -0.701223 -0.00177075 0.71294
vn -0.701223 -0.00177075 0.71294
vn -0.701223 -0.00177055 0.71294
vn -0.701223 -0.00177095 0.71294
vn 0.372237 0.851963 0.368236
vn 0.0457665 0.997823 0.0474941
vn -0.0380561 0.731592 0.68068
vn 0.604565 0.528539 0.595943
vn 0.678136 0.733401 -0.0474791
vn 0.699659 0.146305 -0.699337
vn 0.699659 0.146305 -0.699337
vn 0.699659 0.146304 -0.699337
vn 0.699658 0.146306 -0.699337
vn -0.355359 0.920414 -0.162966
vn -0.0253432 0.983276 0.180351
vn 0.0517642 0.866064 -0.497246
vn -0.594724 0.661704 -0.456564
vn -0.662823 0.716637 0.217017
vn 0.999998 -0.00181469 0.000191005
vn 0.999998 -0.00181469 0.000191005
vn 0.999998 -0.00181478 0.000191048
vn 0.999998 -0.00181461 0.000190963
vn 0.0017358 0.916545 -0.399928
vn 0.00179169 0.997287 0.0735939
vn 0.512174 0.787093 -0.343749
vn 0.00130787 0.641537 -0.767091
vn -0.509188 0.788943 -0.343943
vn -0.00916797 -0.00177005 0.999956
vn -0.00916797 -0.00177005 0.999956
vn -0.00916799 -0.00177007 0.999956
vn -0.00916795 -0.00177002 0.999956
vn 0.523568 0.851961 0.00630862
vn 0.0659209 0.997822 0.00237109
vn 0.445469 0.731591 0.516073
vn 0.848867 0.528535 0.00871834
vn 0.454833 0.733399 -0.505225
vn 0.0174902 0.146304 -0.989085
vn 0.0174902 0.146304 -0.989085
vn 0.0174905 0.146303 -0.989085
vn 0.0174899 0.146305 -0.989085
vn -0.368823 0.920417 0.129625
vn 0.107065 0.983274 0.147339
vn -0.308174 0.866067 -0.393647
vn -0.744965 0.661704 0.0847047
vn -0.326038 0.71664 0.616544
vn -0.999997 -0.00233204 -0.000317293
vn -0.999997 -0.00233204 -0.000317293
vn -0.999997 -0.00233213 -0.000317347
vn -0.999997 -0.00233194 -0.000317239
vn -0.00222007 0.890416 0.455143
vn -0.00232678 0.999918 -0.0125617
vn -0.512579 0.764368 0.391159
vn -0.00163903 0.593507 0.804827
vn 0.508761 0.766749 0.391483
vn 0.700594 -0.00176872 0.713558
vn 0.700594 -0.00176872 0.713558
vn 0.700594 -0.00176815 0.713558
vn 0.700594 -0.00176929 0.713558
vn 0.374677 0.851961 -0.36576
vn 0.0482932 0.997822 -0.0449446
vn 0.679909 0.731595 0.049917
vn 0.6064 0.528541 -0.594074
vn -0.0356301 0.733401 -0.678862
vn -0.687019 0.146306 -0.711758
vn -0.687019 0.146306 -0.711758
vn -0.68702 0.146307 -0.711757
vn -0.687019 0.146305 -0.711758
vn -0.169141 0.920416 0.352456
vn 0.179888 0.983275 0.0284758
vn -0.496266 0.866064 -0.0604401
vn -0.466875 0.661704 0.586665
vn 0.205418 0.71664 0.666506
vn -0.707329 -0.00233252 0.70688
vn -0.707329 -0.00233252 0.70688
vn -0.707329 -0.00233237 0.70688
vn -0.707329 -0.00233267 0.70688
vn 0.320262 0.890418 0.323402
vn -0.0105274 0.999918 -0.00723619
vn -0.0858599 0.764369 0.639037
vn 0.567936 0.593514 0.570254
vn 0.636566 0.76675 -0.082931
vn 0.70724 -0.00181451 -0.706971
vn 0.70724 -0.00181451 -0.706971
vn 0.70724 -0.00181348 -0.706971
vn 0.707241 -0.00181553 -0.706971
vn -0.281564 0.916543 -0.284027
vn 0.0532958 0.997288 0.050753
vn 0.119081 0.787096 -0.605227
vn -0.541485 0.641542 -0.543339
vn -0.603248 0.788951 0.116826
vn 0.999964 -0.00176988 -0.00828514
vn 0.999964 -0.00176988 -0.00828514
vn 0.999964 -0.00176957 -0.00828534
vn 0.999964 -0.00177019 -0.00828493
vn -0.00283301 0.851964 -0.523593
vn 0.00121672 0.997823 -0.0659443
vn 0.508218 0.731595 -0.454404
vn -0.00609982 0.528538 -0.848888
vn -0.513089 0.7334 -0.445941
vn -0.989239 0.146306 -0.000226048
vn -0.989239 0.146306 -0.000226048
vn -0.989239 0.146308 -0.000225156
vn -0.98924 0.146304 -0.00022694
vn 0.136043 0.920417 0.366503
vn 0.145448 0.983274 -0.109622
vn -0.388211 0.866066 0.314994
vn 0.0976937 0.661706 0.743371
vn 0.622143 0.716638 0.315226
vn 0.017135 -0.00233198 0.99985
vn 0.017135 -0.00233198 0.99985
vn 0.017135 -0.00233198 0.99985
vn 0.017135 -0.00233198 0.99985
vn 0.455108 0.890418 -0.00572032
vn -0.0125143 0.999918 0.00254885
vn 0.400042 0.76437 0.505673
vn 0.804727 0.593516 -0.0124048
vn 0.382543 0.766754 -0.515509
vn -0.0172615 -0.00181441 -0.999849
vn -0.0172615 -0.00181441 -0.999849
vn -0.0172614 -0.00181468 -0.999849
vn -0.0172616 -0.00181413 -0.999849
vn -0.399906 0.916541 0.00523949
vn 0.0735278 0.997288 -0.0030805
vn -0.352646 0.787096 -0.506084
vn -0.766995 0.641539 0.0120763
vn -0.335016 0.78895 0.515094
vn -0.69966 0.146302 0.699336
vn -0.69966 0.146302 0.699336
vn -0.699661 0.146302 0.699336
vn -0.69966 0.146303 0.699336
vn 0.355351 0.920419 0.162956
vn 0.0253303 0.983274 -0.180365
vn -0.0517734 0.866068 0.497238
vn 0.594722 0.66171 0.456559
vn 0.662818 0.716639 -0.217027
vn 0.701221 -0.00177154 -0.712942
vn 0.701221 -0.00177154 -0.712942
vn 0.701219 -0.00176641 -0.712944
vn 0.701224 -0.00177667 -0.712939
vn -0.372236 0.851965 -0.368233
vn -0.0457704 0.997822 -0.0474955
vn 0.0380543 0.731594 -0.680677
vn -0.604564 0.528545 -0.595939
vn -0.678134 0.733403 0.0474804
vn -0.719205 -0.00181618 -0.694796
vn -0.719205 -0.00181618 -0.694796
vn -0.719205 -0.00181555 -0.694795
vn -0.719205 -0.00181682 -0.694796
vn -0.279067 0.916543 0.286479
vn 0.04982 0.997288 -0.0541724
vn -0.607213 0.787096 -0.108504
vn -0.533805 0.641543 0.550885
vn 0.127343 0.788948 0.60112
vn 0.719117 -0.00233145 0.694885
vn 0.719117 -0.00233145 0.694885
vn 0.719116 -0.00233451 0.694886
vn 0.719118 -0.00232839 0.694884
vn 0.317763 0.890418 -0.325856
vn -0.00704967 0.999918 0.0106513
vn 0.640438 0.764369 0.0746938
vn 0.560254 0.593517 -0.577801
vn -0.0940282 0.766751 -0.635021
vn -0.999962 -0.00181447 0.00853585
vn -0.999962 -0.00181447 0.00853585
vn -0.999962 -0.00181421 0.00853598
vn -0.999962 -0.00181474 0.00853572
vn 0.00175192 0.916544 0.399931
vn -0.00243796 0.997287 -0.0735649
vn -0.509143 0.787098 0.348211
vn 0.00538611 0.64154 0.767071
vn 0.512155 0.78895 0.339492
vn 0.999962 -0.00233223 -0.00840913
vn 0.999962 -0.00233223 -0.00840913
vn 0.999962 -0.00233253 -0.00840896
vn 0.999962 -0.00233193 -0.0084093
vn 0.0017524 -0.890418 0.455141
vn -0.00243644 -0.999918 -0.0125364
vn -0.509144 -0.76437 0.395615
vn 0.00538551 -0.593516 0.804805
vn 0.512157 -0.766751 0.387025
vn 0.99999 0.00144243 -0.00418235
vn 0.99999 0.00144243 -0.00418235
vn 0.999996 0.00143339 -0.00240181
vn 0.999981 0.00145147 -0.00596289
vn 0.00418255 0.00144217 0.99999
vn 0.00418255 0.00144217 0.99999
vn 0.00240224 0.00143312 0.999996
vn 0.00596284 0.0014512 0.999981
vn -0.00885876 0.146304 0.9892
vn -0.00885876 0.146304 0.9892
vn -0.00885893 0.146304 0.9892
vn -0.0088586 0.146305 0.9892
vn 0.367675 0.920418 -0.132837
vn -0.108345 0.983275 -0.146398
vn 0.311594 0.866067 0.390943
vn 0.744192 0.661711 -0.0912012
vn 0.320643 0.716642 -0.619364
vn 0.000441405 -0.00177011 -0.999998
vn 0.000441405 -0.00177011 -0.999998
vn 0.000441356 -0.00177004 -0.999998
vn 0.000441454 -0.00177019 -0.999998
vn 0.523599 -0.851963 0.00173767
vn 0.0659315 -0.997823 0.00179492
vn 0.449954 -0.731596 0.512161
vn 0.848909 -0.528537 0.00130806
vn 0.450404 -0.733403 -0.509172
usemtl Texture
g blad
s 1
f 1/1/1 4/3/4 2/2/2
f 2/2/2 3/4/3 1/1/1
f 5/5/5 9/3/9 6/2/6
f 6/2/6 7/4/7 5/5/5
f 7/4/7 8/1/8 5/5/5
f 8/1/8 9/3/9 5/5/5
f 10/1/10 13/3/13 11/2/11
f 11/2/11 12/4/12 10/1/10
f 14/5/14 18/3/18 15/2/15
f 15/2/15 16/4/16 14/5/14
f 16/4/16 17/1/17 14/5/14
f 17/1/17 18/3/18 14/5/14
f 19/1/19 22/3/22 20/2/20
f 20/2/20 21/4/21 19/1/19
f 23/5/23 27/3/27 24/2/24
f 24/2/24 25/4/25 23/5/23
f 25/4/25 26/1/26 23/5/23
f 26/1/26 27/3/27 23/5/23
f 28/1/28 31/3/31 29/2/29
f 29/2/29 30/4/30 28/1/28
f 32/5/32 36/3/36 33/2/33
f 33/2/33 34/4/34 32/5/32
f 34/4/34 35/1/35 32/5/32
f 35/1/35 36/3/36 32/5/32
f 37/1/37 40/3/40 38/2/38
f 38/2/38 39/4/39 37/1/37
f 41/5/41 45/3/45 42/2/42
f 42/2/42 43/4/43 41/5/41
f 43/4/43 44/1/44 41/5/41
f 44/1/44 45/3/45 41/5/41
f 46/1/46 49/3/49 47/2/47
f 47/2/47 48/4/48 46/1/46
f 50/5/50 54/3/54 51/2/51
f 51/2/51 52/4/52 50/5/50
f 52/4/52 53/1/53 50/5/50
f 53/1/53 54/3/54 50/5/50
f 55/1/55 58/3/58 56/2/56
f 56/2/56 57/4/57 55/1/55
f 59/5/59 63/3/63 60/2/60
f 60/2/60 61/4/61 59/5/59
f 61/4/61 62/1/62 59/5/59
f 62/1/62 63/3/63 59/5/59
f 64/1/64 67/3/67 65/2/65
f 65/2/65 66/4/66 64/1/64
f 68/5/68 72/3/72 69/2/69
f 69/2/69 70/4/70 68/5/68
f 70/4/70 71/1/71 68/5/68
f 71/1/71 72/3/72 68/5/68
f 73/1/73 76/3/76 74/2/74
f 74/2/74 75/4/75 73/1/73
f 77/5/77 81/3/81 78/2/78
f 78/2/78 79/4/79 77/5/77
f 79/4/79 80/1/80 77/5/77
f 80/1/80 81/3/81 77/5/77
f 82/1/82 85/3/85 83/2/83
f 83/2/83 84/4/84 82/1/82
f 86/5/86 90/3/90 87/2/87
f 87/2/87 88/4/88 86/5/86
f 88/4/88 89/1/89 86/5/86
f 89/1/89 90/3/90 86/5/86
f 91/1/91 94/3/94 92/2/92
f 92/2/92 93/4/93 91/1/91
f 95/5/95 99/3/99 96/2/96
f 96/2/96 97/4/97 95/5/95
f 97/4/97 98/1/98 95/5/95
f 98/1/98 99/3/99 95/5/95
f 100/1/100 103/3/103 101/2/101
f 101/2/101 102/4/102 100/1/100
f 104/5/104 108/3/108 105/2/105
f 105/2/105 106/4/106 104/5/104
f 106/4/106 107/1/107 104/5/104
f 107/1/107 108/3/108 104/5/104
f 109/1/109 112/3/112 110/2/110
f 110/2/110 111/4/111 109/1/109
f 113/5/113 117/3/117 114/2/114
f 114/2/114 115/4/115 113/5/113
f 115/4/115 116/1/116 113/5/113
f 116/1/116 117/3/117 113/5/113
f 118/1/118 121/3/121 119/2/119
f 119/2/119 120/4/120 118/1/118
f 122/5/122 126/3/126 123/2/123
f 123/2/123 124/4/124 122/5/122
f 124/4/124 125/1/125 122/5/122
f 125/1/125 126/3/126 122/5/122
f 127/1/127 130/3/130 128/2/128
f 128/2/128 129/4/129 127/1/127
f 131/5/131 135/3/135 132/2/132
f 132/2/132 133/4/133 131/5/131
f 133/4/133 134/1/134 131/5/131
f 134/1/134 135/3/135 131/5/131
f 136/1/136 139/3/139 137/2/137
f 137/2/137 138/4/138 136/1/136
f 140/5/140 144/3/144 141/2/141
f 141/2/141 142/4/142 140/5/140
f 142/4/142 143/1/143 140/5/140
f 143/1/143 144/3/144 140/5/140
f 145/1/145 148/3/148 146/2/146
f 146/2/146 147/4/147 145/1/145
f 149/5/149 153/3/153 150/2/150
f 150/2/150 151/4/151 149/5/149
f 151/4/151 152/1/152 149/5/149
f 152/1/152 153/3/153 149/5/149
f 154/1/154 157/3/157 155/2/155
f 155/2/155 156/4/156 154/1/154
f 158/5/158 162/3/162 159/2/159
f 159/2/159 160/4/160 158/5/158
f 160/4/160 161/1/161 158/5/158
f 161/1/161 162/3/162 158/5/158
f 163/1/163 166/3/166 164/2/164
f 164/2/164 165/4/165 163/1/163
f 167/5/167 171/3/171 168/2/168
f 168/2/168 169/4/169 167/5/167
f 169/4/169 170/1/170 167/5/167
f 170/1/170 171/3/171 167/5/167
f 172/1/172 175/3/175 173/2/173
f 173/2/173 174/4/174 172/1/172
f 176/5/176 180/3/180 177/2/177
f 177/2/177 178/4/178 176/5/176
f 178/4/178 179/1/179 176/5/176
f 179/1/179 180/3/180 176/5/176
f 181/1/181 184/3/184 182/2/182
f 182/2/182 183/4/183 181/1/181
f 185/5/185 189/3/189 186/2/186
f 186/2/186 187/4/187 185/5/185
f 187/4/187 188/1/188 185/5/185
f 188/1/188 189/3/189 185/5/185
f 190/1/190 193/3/193 191/2/191
f 191/2/191 192/4/192 190/1/190
f 194/5/194 196/4/196 195/2/195
f 194/5/194 197/1/197 196/4/196
f 194/5/194 198/3/198 197/1/197
f 195/2/195 198/3/198 194/5/194
f 199/1/199 202/3/202 200/2/200
f 200/2/200 201/4/201 199/1/199
f 203/1/203 206/3/206 204/2/204
f 204/2/204 205/4/205 203/1/203
f 207/1/207 210/3/210 208/2/208
f 208/2/208 209/4/209 207/1/207
f 211/5/211 215/3/215 212/2/212
f 212/2/212 213/4/213 211/5/211
f 213/4/213 214/1/214 211/5/211
f 214/1/214 215/3/215 211/5/211
f 216/1/216 219/3/219 217/2/217
f 217/2/217 218/4/218 216/1/216
f 220/5/220 222/4/222 221/2/221
f 220/5/220 223/1/223 222/4/222
f 220/5/220 224/3/224 223/1/223
f 221/2/221 224/3/224 220/5/220
