# Wavefront OBJ
# Created by fragMOTION
# http://www.fragmosoft.com

mtllib blad.mtl
# 232 vertices
v 1.82144 150.262 -2.60625
v 11.3812 142.709 -12.4986
v -3.88262 162.133 -9.56194
v 5.54438 152.525 -20.6969
v -10.2229 169.461 -19.4647
v 0.304415 158.87 -31.9439
v -15.2737 170.364 -32.7838
v -3.37303 159.058 -45.4402
v -17.4881 165.185 -46.8633
v -4.29193 152.631 -59.8302
v -6.74691 143.459 0.093992
v -12.152 155.212 -6.52747
v -18.4923 162.541 -16.4302
v -23.616 162.884 -29.8798
v -25.7794 157.318 -44.7989
v 1.16998 132.185 -1.21156
v -0.296017 143.355 -2.48461
v 2.21279 143.55 -2.05837
v -0.918434 132.031 -1.99954
v -1.0135 151.165 -4.94336
v 0.488209 151.568 -4.84449
v -2.32383 157.281 -7.46399
v -0.918434 132.031 -1.99954
v 0.259769 143.509 -0.9841
v -0.296017 143.355 -2.48461
v -0.476547 132.024 0.205286
v -0.692547 151.995 -3.63906
v -1.0135 151.165 -4.94336
v -2.32383 157.281 -7.46399
v 1.6607 132.87 5.30159
v -11.5451 126.359 10.733
v 8.10596 140.558 16.3105
v -5.76584 131.811 22.3302
v 13.3519 143.157 28.8679
v -2.11742 133.507 35.6728
v 15.0288 139.38 42.5297
v -1.94354 129.43 49.0541
v 12.4184 130.623 54.6318
v -6.14273 119.824 60.8576
v 8.77717 124.683 2.2499
v 14.9962 132.428 12.8585
v 20.2421 135.027 25.4159
v 21.8235 130.68 39.0489
v 18.8669 121.382 51.8181
v -1.64425 116.258 -1.19934
v 2.0529 125.877 3.52755
v -0.15438 126.895 2.74986
v 0.08834 115.316 -0.142231
v 3.96218 132.324 8.25434
v 2.67003 133.163 8.01988
v 6.01424 137.014 12.6451
v 0.08834 115.316 -0.142231
v 1.9367 126.535 2.06574
v 2.0529 125.877 3.52755
v 0.214945 115.958 -2.29373
v 4.17766 133.494 7.21587
v 3.96218 132.324 8.25434
v 6.01424 137.014 12.6451
v 7.23452 142.412 -11.2329
v 23.7867 131.425 -3.93539
v 12.2814 150.864 -28.7419
v 29.5499 136.722 -21.2026
v 18.8318 152.118 -46.1964
v 38.1927 136.466 -37.8898
v 28.5656 144.346 -60.872
v 49.1012 128.221 -50.8886
v 40.11 129.905 -69.6141
v 61.7742 112.573 -57.8048
v -4.24381 132.817 -13.9094
v 0.682182 141.411 -30.8219
v 7.23258 142.665 -48.2764
v 16.9158 134.132 -62.7811
v 29.2846 118.8 -71.815
v 1.23239 121.424 -0.181275
v 3.80098 133.531 -9.15853
v 5.50519 134.852 -6.47567
v 0.263236 120.103 -2.71517
v 7.47561 141.265 -16.1987
v 8.72089 142.313 -14.87
v 10.3414 146.746 -22.8664
v 0.263236 120.103 -2.71517
v 2.75012 134.706 -7.67053
v 3.80098 133.531 -9.15853
v -1.64658 121.424 -0.764714
v 6.58092 143.059 -15.4813
v 7.47561 141.265 -16.1987
v 10.3414 146.746 -22.8664
v -9.08384 145.111 10.4393
v -22.717 135.356 -2.4804
v -19.0388 151.663 26.6084
v -33.2512 138.815 12.8979
v -30.3327 151.101 41.4837
v -46.3115 136.882 26.274
v -43.7719 141.948 51.7857
v -60.3897 127.471 34.591
v -57.165 126.868 55.1716
v -74.3261 111.419 35.7804
v 1.25886 135.039 15.1885
v -8.41099 141.796 30.8406
v -19.7049 141.234 45.7159
v -33.0375 131.343 55.784
v -47.2934 115.362 59.1111
v 0.084377 125.364 -0.726226
v -5.09414 136.447 8.44632
v -5.9733 138.094 5.55484
v 0.302089 123.749 1.81316
v -10.7247 143.423 14.9659
v -11.5492 144.639 13.4635
v -15.4469 148.186 21.1085
v 0.302089 123.749 1.81316
v -3.6749 137.758 7.46375
v -5.09414 136.447 8.44632
v 2.67503 125.239 0.65279
v -9.68338 145.266 14.7416
v -10.7247 143.423 14.9659
v -15.4469 148.186 21.1085
v 9.95846 149.107 15.6173
v -6.10395 138.419 24.3179
v 23.3914 153.392 29.9233
v 6.348 139.612 38.564
v 35.0757 150.535 44.222
v 16.1181 135.254 54.0166
v 41.6001 139.154 58.3084
v 20.5563 123.647 68.2123
v 41.2854 122.303 69.8919
v 17.9563 105.887 79.6639
v 16.8264 140.203 5.3932
v 29.8318 144.758 19.3313
v 41.5161 141.901 33.6301
v 47.8217 129.816 47.4561
v 47.2197 111.965 59.7302
v 0.873954 131.374 1.41601
v 8.78346 141.158 10.1048
v 5.80535 142.839 10.4959
v 3.35132 129.66 1.58228
v 13.9122 146.968 18.0305
v 12.2845 148.15 18.6373
v 18.8422 150.726 24.6857
v 3.35132 129.66 1.58228
v 8.20491 142.695 8.69012
v 8.78346 141.158 10.1048
v 2.83521 131.507 -0.766839
v 13.9905 148.94 17.2324
v 13.9122 146.968 18.0305
v 18.8422 150.726 24.6857
v 8.87131 141.752 -1.07823
v 19.2285 130.173 13.2962
v 21.9129 154.111 -10.0575
v 33.2306 139.439 4.4919
v 37.3452 159.517 -19.0995
v 50.0872 143.298 -2.86924
v 55.1433 155.658 -25.3334
v 67.8655 138.658 -7.15253
v 71.9204 144.064 -26.8668
v 84.6248 125.533 -6.75732
v 3.24967 132.486 -11.733
v 15.8116 144.845 -20.3116
v 31.2439 150.252 -29.3536
v 49.032 145.611 -35.5995
v 66.7815 133.252 -36.9679
v 1.18292 118.58 0.538891
v 6.49852 132.486 -2.9441
v 5.9681 133.252 0.369454
v 2.19412 117.814 -2.19904
v 12.264 141.752 -4.88916
v 12.2442 142.533 -2.93857
v 17.5687 148.705 -7.38586
v 2.19412 117.814 -2.19904
v 4.5767 133.252 -2.29575
v 6.49852 132.486 -2.9441
v -0.700168 118.58 -1.71564
v 10.8219 143.298 -4.64146
v 12.264 141.752 -4.88916
v 17.5687 148.705 -7.38586
v -0.944382 141.752 -8.88657
v 13.5846 130.173 -19.0258
v -9.72598 154.111 -22.0621
v 4.99248 139.439 -33.1591
v -18.5342 159.517 -37.629
v -2.11361 143.298 -50.1248
v -24.499 155.658 -55.5191
v -6.1283 138.658 -67.9656
v -25.7792 144.064 -72.3174
v -5.4804 125.533 -84.7171
v -11.6827 132.486 -3.42625
v -20.0709 144.845 -16.1161
v -28.8792 150.252 -31.683
v -34.8561 145.611 -49.5633
v -35.9566 133.252 -67.3315
v 0.556621 118.58 -1.17466
v -2.84582 132.486 -6.54219
v 0.459362 133.252 -5.96186
v -2.16575 117.814 -2.22704
v -4.70371 141.752 -12.3363
v -2.75364 142.533 -12.2871
v -7.12013 148.705 -17.6781
v -2.16575 117.814 -2.22704
v -2.22652 133.252 -4.6108
v -2.84582 132.486 -6.54219
v -1.72605 118.58 0.674209
v -4.47779 143.298 -10.8906
v -4.70371 141.752 -12.3363
v -7.12013 148.705 -17.6781
v -7.5 141.752 -4.85938
v -6.23438 130.173 -22.5313
v -23.2656 154.111 -6.32813
v -22.625 139.439 -24.75
v -40.9063 159.517 -9.28125
v -40.2813 143.298 -29.9062
v -58.5625 155.658 -15.9062
v -56.6719 138.658 -38.0156
v -72.4219 144.064 -25.4844
v -69.2813 125.533 -49.0625
v -10.0156 132.486 6.92188
v -25.1563 144.845 5.45313
v -42.7969 150.252 2.5
v -60.4531 145.611 -4.10937
v -74.9531 133.252 -14.4375
v -0.562503 118.58 -1.17188
v -6.875 132.486 -1.90625
v -4.34375 133.252 -4.10938
v -3.09375 117.814 0.28125
v -12.5469 141.752 -4.10938
v -11.2813 142.533 -5.59375
v -18.2188 148.705 -5.59375
v -3.09375 117.814 0.28125
v -4.98438 133.252 -1.17188
v -6.875 132.486 -1.90625
v -0.562503 118.58 1.76563
v -11.2813 143.298 -3.375
v -12.5469 141.752 -4.10938
v -18.2188 148.705 -5.59375
# 28 texture vertices
vt 0 0.878906
vt 0 1
vt 0.1875 1
vt 0 0.757813
vt 0.1875 0.878906
vt 0.1875 0.757813
vt 0.371094 1
vt 0.371094 0.878906
vt 0.371094 0.757813
vt 0.558594 1
vt 0.558594 0.878906
vt 0.558594 0.757813
vt 0.746094 1
vt 0.746094 0.878906
vt 0.746094 0.757813
vt 0.101563 0.164063
vt 0.121094 0.292969
vt 0.121094 0.164063
vt 0.101563 0.292969
vt 0.121094 0.425781
vt 0.101563 0.425781
vt 0.089844 0.554688
vt 0.0625 0.164063
vt 0.082031 0.292969
vt 0.082031 0.164063
vt 0.0625 0.292969
vt 0.082031 0.425781
vt 0.0625 0.425781
# 232 normals
vn 0.230348 0.567105 0.790779
vn 0.781036 0.578038 0.236337
vn 0.332262 0.75204 0.569243
vn 0.753163 0.653393 0.0763074
vn 0.131258 0.961122 0.242932
vn 0.643932 0.759307 -0.093835
vn -0.0842731 0.984107 -0.156306
vn 0.468954 0.827509 -0.308725
vn 0.0394801 0.932085 -0.360081
vn 0.39901 0.827465 -0.395087
vn -0.0856251 0.458835 0.884386
vn -0.15759 0.540202 0.826648
vn -0.40562 0.727385 0.553519
vn -0.629578 0.767804 0.118778
vn -0.694726 0.702342 -0.155152
vn 0.266112 -0.0746077 -0.961051
vn 0.239286 -0.144089 -0.960198
vn 0.166651 -0.223234 -0.960414
vn 0.356232 -0.0595256 -0.9325
vn 0.159564 -0.308682 -0.937686
vn 0.148303 -0.322858 -0.934756
vn 0.154396 -0.347998 -0.924694
vn -0.960205 0.0747584 0.269104
vn -0.953978 0.0509692 0.295515
vn -0.949977 0.0193147 0.311722
vn -0.977073 0.0829504 0.19608
vn -0.955161 -0.0312309 0.294434
vn -0.962299 -0.0484764 0.267638
vn -0.953565 -0.0852356 0.288876
vn 0.112111 0.778913 -0.61703
vn -0.53967 0.820658 -0.18782
vn 0.00528254 0.928167 -0.372127
vn -0.535161 0.844685 -0.0104295
vn 0.163066 0.986135 0.0307873
vn -0.449463 0.870735 0.199511
vn 0.272657 0.850281 0.450199
vn -0.321884 0.832005 0.45184
vn 0.0938224 0.790586 0.60512
vn -0.277437 0.791115 0.54513
vn 0.406691 0.607712 -0.682121
vn 0.479284 0.648381 -0.591514
vn 0.689224 0.68473 -0.236886
vn 0.802093 0.554211 0.222478
vn 0.780366 0.410056 0.472105
vn -0.504685 -0.216683 0.835668
vn -0.495636 -0.288744 0.819129
vn -0.446066 -0.383472 0.808687
vn -0.578806 -0.169512 0.797653
vn -0.453943 -0.459382 0.763481
vn -0.445978 -0.475137 0.758517
vn -0.455151 -0.494274 0.740629
vn 0.986588 -0.149764 -0.0649297
vn 0.981637 -0.163769 -0.0978172
vn 0.974411 -0.188113 -0.123033
vn 0.986371 -0.164288 0.00905271
vn 0.963107 -0.240529 -0.120707
vn 0.959145 -0.264901 -0.0993345
vn 0.947506 -0.291401 -0.131597
vn -0.369471 0.872106 0.320814
vn 0.399189 0.802396 0.443632
vn -0.105964 0.973491 0.202701
vn 0.516911 0.798417 0.30876
vn 0.0536682 0.977578 -0.20362
vn 0.596887 0.796683 0.0949875
vn 0.22951 0.784903 -0.575546
vn 0.664106 0.727221 -0.173531
vn 0.453946 0.68982 -0.563987
vn 0.686833 0.67518 -0.26906
vn -0.655273 0.733211 0.181712
vn -0.642326 0.763816 0.0632682
vn -0.556256 0.75767 -0.341343
vn -0.355573 0.564173 -0.745169
vn -0.196918 0.381364 -0.903208
vn 0.889394 -0.378629 -0.25616
vn 0.860637 -0.446422 -0.244973
vn 0.802654 -0.534826 -0.264023
vn 0.925973 -0.331075 -0.181561
vn 0.766764 -0.603019 -0.220093
vn 0.75519 -0.617234 -0.220706
vn 0.747123 -0.633879 -0.200011
vn -0.790249 -0.071923 -0.608551
vn -0.810536 -0.0808681 -0.580079
vn -0.825683 -0.10136 -0.554953
vn -0.74342 -0.0979055 -0.66162
vn -0.823981 -0.154121 -0.545255
vn -0.810721 -0.181764 -0.556501
vn -0.827624 -0.203562 -0.523068
vn 0.435515 0.894478 -0.101167
vn -0.264782 0.855046 -0.445855
vn 0.148018 0.987577 -0.0527506
vn -0.416173 0.838532 -0.35166
vn -0.121437 0.949702 0.288651
vn -0.55405 0.814661 -0.171333
vn -0.394214 0.720508 0.570494
vn -0.694596 0.717131 0.0570976
vn -0.604766 0.632039 0.484546
vn -0.743134 0.655255 0.135621
vn 0.671076 0.734975 0.0973121
vn 0.624351 0.752453 0.20976
vn 0.425978 0.703057 0.569433
vn 0.120268 0.470012 0.874428
vn -0.0748451 0.274099 0.958785
vn -0.920921 -0.386063 -0.0534791
vn -0.889358 -0.452775 -0.0635408
vn -0.838221 -0.543949 -0.0387937
vn -0.935141 -0.329733 -0.129565
vn -0.790434 -0.607559 -0.0780145
vn -0.779353 -0.621993 -0.0757217
vn -0.765495 -0.636393 -0.0949824
vn 0.583413 -0.155878 0.797077
vn 0.611116 -0.162018 0.774782
vn 0.633074 -0.179895 0.752898
vn 0.523648 -0.186625 0.831242
vn 0.634853 -0.231198 0.737231
vn 0.619256 -0.259638 0.74102
vn 0.645293 -0.277924 0.711586
vn 0.0285451 0.947537 -0.31837
vn -0.476124 0.837503 0.268131
vn 0.00819731 0.999813 -0.0175058
vn -0.421763 0.796262 0.433686
vn 0.273288 0.908182 0.317047
vn -0.280759 0.744611 0.605581
vn 0.475238 0.630085 0.614119
vn -0.0954966 0.61697 0.781171
vn 0.338831 0.520155 0.783985
vn -0.032543 0.544998 0.837805
vn 0.27424 0.808838 -0.520166
vn 0.372433 0.813743 -0.446223
vn 0.672164 0.718858 -0.17731
vn 0.888514 0.431383 0.156368
vn 0.918477 0.207443 0.336702
vn -0.283823 -0.498182 0.819304
vn -0.287541 -0.55958 0.777297
vn -0.253343 -0.644634 0.721294
vn -0.359722 -0.439949 0.822827
vn -0.281347 -0.699215 0.657223
vn -0.276786 -0.712203 0.645102
vn -0.292461 -0.723579 0.62522
vn 0.910563 -0.124023 -0.394325
vn 0.895491 -0.12526 -0.42709
vn 0.879147 -0.138883 -0.455864
vn 0.928516 -0.164118 -0.333052
vn 0.863156 -0.188557 -0.46841
vn 0.86238 -0.218943 -0.45647
vn 0.83969 -0.232017 -0.491008
vn -0.633295 0.76111 0.140174
vn -0.0984207 0.700568 0.706766
vn -0.37483 0.898054 0.230219
vn 0.0753345 0.732058 0.677064
vn -0.00565181 0.999773 0.0205604
vn 0.267129 0.78161 0.563674
vn 0.389633 0.902948 -0.181303
vn 0.493964 0.776829 0.390558
vn 0.573553 0.817913 -0.0453313
vn 0.578509 0.748461 0.324242
vn -0.746867 0.64394 -0.165925
vn -0.67047 0.700718 -0.243853
vn -0.357679 0.788769 -0.49991
vn 0.0763491 0.699373 -0.710668
vn 0.327121 0.563726 -0.758423
vn 0.911904 -0.271484 0.30778
vn 0.894625 -0.341293 0.288384
vn 0.876541 -0.425755 0.224517
vn 0.886871 -0.240144 0.394702
vn 0.833977 -0.503571 0.225606
vn 0.827839 -0.517799 0.215794
vn 0.811953 -0.538984 0.224118
vn -0.23297 0.0298667 -0.972025
vn -0.264397 0.0138962 -0.964314
vn -0.287794 -0.012341 -0.957613
vn -0.159946 0.018503 -0.986952
vn -0.283136 -0.0658038 -0.95682
vn -0.261208 -0.0896188 -0.961113
vn -0.290766 -0.119058 -0.949358
vn 0.130608 0.76111 0.635337
vn 0.705201 0.700568 0.109068
vn 0.224539 0.898055 0.378259
vn 0.678123 0.732058 -0.0651153
vn 0.0204722 0.999773 0.00596073
vn 0.567638 0.78161 -0.258598
vn -0.175407 0.902948 -0.392322
vn 0.397963 0.77683 -0.488018
vn -0.0366768 0.817914 -0.574171
vn 0.33293 0.748461 -0.573554
vn -0.177169 0.64394 0.74428
vn -0.253937 0.700718 0.666716
vn -0.505248 0.788769 0.350099
vn -0.709436 0.699373 -0.0870581
vn -0.753404 0.563726 -0.338521
vn 0.321497 -0.271484 -0.907158
vn 0.301843 -0.341293 -0.890174
vn 0.23771 -0.425756 -0.873056
vn 0.408032 -0.240144 -0.880818
vn 0.238157 -0.503572 -0.83048
vn 0.228255 -0.517799 -0.82449
vn 0.236338 -0.538984 -0.808481
vn -0.975428 0.0298663 0.218284
vn -0.968191 0.0138957 0.249825
vn -0.961844 -0.0123415 0.273319
vn -0.989252 0.0185026 0.145044
vn -0.960981 -0.0658043 0.268674
vn -0.964943 -0.0896193 0.246684
vn -0.953635 -0.119059 0.276416
vn 0.575911 0.761111 0.298391
vn 0.52861 0.700568 -0.479349
vn 0.435263 0.898055 0.0635926
vn 0.376213 0.732059 -0.567939
vn 0.0175172 0.999773 -0.0121568
vn 0.156322 0.78161 -0.603862
vn -0.415267 0.902948 -0.110624
vn -0.128749 0.77683 -0.616408
vn -0.469261 0.817913 -0.332884
vn -0.23615 0.748461 -0.619709
vn 0.466853 0.64394 0.606127
vn 0.358262 0.700718 0.616962
vn -0.0459501 0.788768 0.612971
vn -0.514172 0.699372 0.496493
vn -0.737252 0.563725 0.372388
vn -0.502582 -0.271484 -0.820797
vn -0.501755 -0.341293 -0.794834
vn -0.528818 -0.425756 -0.734224
vn -0.427648 -0.240144 -0.871463
vn -0.495451 -0.503572 -0.707774
vn -0.497029 -0.517799 -0.696309
vn -0.479501 -0.538984 -0.692514
vn -0.444313 0.0298662 0.895373
vn -0.415249 0.0138957 0.909602
vn -0.392997 -0.0123417 0.919457
vn -0.509928 0.0185024 0.860018
vn -0.396064 -0.0658046 0.915862
vn -0.415646 -0.0896198 0.9051
vn -0.385424 -0.119059 0.915026
usemtl Texture
g blad1
s 1
f 1/1/1 12/3/12 11/2/11
f 2/4/2 3/5/3 1/1/1
f 2/4/2 4/6/4 3/5/3
f 3/5/3 12/3/12 1/1/1
f 3/5/3 13/7/13 12/3/12
f 4/6/4 5/8/5 3/5/3
f 4/6/4 6/9/6 5/8/5
f 5/8/5 13/7/13 3/5/3
f 5/8/5 14/10/14 13/7/13
f 6/9/6 7/11/7 5/8/5
f 6/9/6 8/12/8 7/11/7
f 7/11/7 14/10/14 5/8/5
f 7/11/7 15/13/15 14/10/14
f 8/12/8 9/14/9 7/11/7
f 8/12/8 10/15/10 9/14/9
f 9/14/9 15/13/15 7/11/7
f 16/16/16 19/18/19 17/17/17
f 17/17/17 18/19/18 16/16/16
f 17/17/17 20/20/20 18/19/18
f 20/20/20 21/21/21 18/19/18
f 20/20/20 22/22/22 21/21/21
f 23/23/23 26/25/26 24/24/24
f 24/24/24 25/26/25 23/23/23
f 24/24/24 27/27/27 25/26/25
f 27/27/27 28/28/28 25/26/25
f 27/27/27 29/22/29 28/28/28
f 30/1/30 41/3/41 40/2/40
f 31/4/31 32/5/32 30/1/30
f 31/4/31 33/6/33 32/5/32
f 32/5/32 41/3/41 30/1/30
f 32/5/32 42/7/42 41/3/41
f 33/6/33 34/8/34 32/5/32
f 33/6/33 35/9/35 34/8/34
f 34/8/34 42/7/42 32/5/32
f 34/8/34 43/10/43 42/7/42
f 35/9/35 36/11/36 34/8/34
f 35/9/35 37/12/37 36/11/36
f 36/11/36 43/10/43 34/8/34
f 36/11/36 44/13/44 43/10/43
f 37/12/37 38/14/38 36/11/36
f 37/12/37 39/15/39 38/14/38
f 38/14/38 44/13/44 36/11/36
f 45/16/45 48/18/48 46/17/46
f 46/17/46 47/19/47 45/16/45
f 46/17/46 49/20/49 47/19/47
f 49/20/49 50/21/50 47/19/47
f 49/20/49 51/22/51 50/21/50
f 52/23/52 55/25/55 53/24/53
f 53/24/53 54/26/54 52/23/52
f 53/24/53 56/27/56 54/26/54
f 56/27/56 57/28/57 54/26/54
f 56/27/56 58/22/58 57/28/57
f 59/1/59 70/3/70 69/2/69
f 60/4/60 61/5/61 59/1/59
f 60/4/60 62/6/62 61/5/61
f 61/5/61 70/3/70 59/1/59
f 61/5/61 71/7/71 70/3/70
f 62/6/62 63/8/63 61/5/61
f 62/6/62 64/9/64 63/8/63
f 63/8/63 71/7/71 61/5/61
f 63/8/63 72/10/72 71/7/71
f 64/9/64 65/11/65 63/8/63
f 64/9/64 66/12/66 65/11/65
f 65/11/65 72/10/72 63/8/63
f 65/11/65 73/13/73 72/10/72
f 66/12/66 67/14/67 65/11/65
f 66/12/66 68/15/68 67/14/67
f 67/14/67 73/13/73 65/11/65
f 74/16/74 77/18/77 75/17/75
f 75/17/75 76/19/76 74/16/74
f 75/17/75 78/20/78 76/19/76
f 78/20/78 79/21/79 76/19/76
f 78/20/78 80/22/80 79/21/79
f 81/23/81 84/25/84 82/24/82
f 82/24/82 83/26/83 81/23/81
f 82/24/82 85/27/85 83/26/83
f 85/27/85 86/28/86 83/26/83
f 85/27/85 87/22/87 86/28/86
f 88/1/88 99/3/99 98/2/98
f 89/4/89 90/5/90 88/1/88
f 89/4/89 91/6/91 90/5/90
f 90/5/90 99/3/99 88/1/88
f 90/5/90 100/7/100 99/3/99
f 91/6/91 92/8/92 90/5/90
f 91/6/91 93/9/93 92/8/92
f 92/8/92 100/7/100 90/5/90
f 92/8/92 101/10/101 100/7/100
f 93/9/93 94/11/94 92/8/92
f 93/9/93 95/12/95 94/11/94
f 94/11/94 101/10/101 92/8/92
f 94/11/94 102/13/102 101/10/101
f 95/12/95 96/14/96 94/11/94
f 95/12/95 97/15/97 96/14/96
f 96/14/96 102/13/102 94/11/94
f 103/16/103 106/18/106 104/17/104
f 104/17/104 105/19/105 103/16/103
f 104/17/104 107/20/107 105/19/105
f 107/20/107 108/21/108 105/19/105
f 107/20/107 109/22/109 108/21/108
f 110/23/110 113/25/113 111/24/111
f 111/24/111 112/26/112 110/23/110
f 111/24/111 114/27/114 112/26/112
f 114/27/114 115/28/115 112/26/112
f 114/27/114 116/22/116 115/28/115
f 117/1/117 128/3/128 127/2/127
f 118/4/118 119/5/119 117/1/117
f 118/4/118 120/6/120 119/5/119
f 119/5/119 128/3/128 117/1/117
f 119/5/119 129/7/129 128/3/128
f 120/6/120 121/8/121 119/5/119
f 120/6/120 122/9/122 121/8/121
f 121/8/121 129/7/129 119/5/119
f 121/8/121 130/10/130 129/7/129
f 122/9/122 123/11/123 121/8/121
f 122/9/122 124/12/124 123/11/123
f 123/11/123 130/10/130 121/8/121
f 123/11/123 131/13/131 130/10/130
f 124/12/124 125/14/125 123/11/123
f 124/12/124 126/15/126 125/14/125
f 125/14/125 131/13/131 123/11/123
f 132/16/132 135/18/135 133/17/133
f 133/17/133 134/19/134 132/16/132
f 133/17/133 136/20/136 134/19/134
f 136/20/136 137/21/137 134/19/134
f 136/20/136 138/22/138 137/21/137
f 139/23/139 142/25/142 140/24/140
f 140/24/140 141/26/141 139/23/139
f 140/24/140 143/27/143 141/26/141
f 143/27/143 144/28/144 141/26/141
f 143/27/143 145/22/145 144/28/144
f 146/1/146 157/3/157 156/2/156
f 147/4/147 148/5/148 146/1/146
f 147/4/147 149/6/149 148/5/148
f 148/5/148 157/3/157 146/1/146
f 148/5/148 158/7/158 157/3/157
f 149/6/149 150/8/150 148/5/148
f 149/6/149 151/9/151 150/8/150
f 150/8/150 158/7/158 148/5/148
f 150/8/150 159/10/159 158/7/158
f 151/9/151 152/11/152 150/8/150
f 151/9/151 153/12/153 152/11/152
f 152/11/152 159/10/159 150/8/150
f 152/11/152 160/13/160 159/10/159
f 153/12/153 154/14/154 152/11/152
f 153/12/153 155/15/155 154/14/154
f 154/14/154 160/13/160 152/11/152
f 161/16/161 164/18/164 162/17/162
f 162/17/162 163/19/163 161/16/161
f 162/17/162 165/20/165 163/19/163
f 165/20/165 166/21/166 163/19/163
f 165/20/165 167/22/167 166/21/166
f 168/23/168 171/25/171 169/24/169
f 169/24/169 170/26/170 168/23/168
f 169/24/169 172/27/172 170/26/170
f 172/27/172 173/28/173 170/26/170
f 172/27/172 174/22/174 173/28/173
f 175/1/175 186/3/186 185/2/185
f 176/4/176 177/5/177 175/1/175
f 176/4/176 178/6/178 177/5/177
f 177/5/177 186/3/186 175/1/175
f 177/5/177 187/7/187 186/3/186
f 178/6/178 179/8/179 177/5/177
f 178/6/178 180/9/180 179/8/179
f 179/8/179 187/7/187 177/5/177
f 179/8/179 188/10/188 187/7/187
f 180/9/180 181/11/181 179/8/179
f 180/9/180 182/12/182 181/11/181
f 181/11/181 188/10/188 179/8/179
f 181/11/181 189/13/189 188/10/188
f 182/12/182 183/14/183 181/11/181
f 182/12/182 184/15/184 183/14/183
f 183/14/183 189/13/189 181/11/181
f 190/16/190 193/18/193 191/17/191
f 191/17/191 192/19/192 190/16/190
f 191/17/191 194/20/194 192/19/192
f 194/20/194 195/21/195 192/19/192
f 194/20/194 196/22/196 195/21/195
f 197/23/197 200/25/200 198/24/198
f 198/24/198 199/26/199 197/23/197
f 198/24/198 201/27/201 199/26/199
f 201/27/201 202/28/202 199/26/199
f 201/27/201 203/22/203 202/28/202
f 204/1/204 215/3/215 214/2/214
f 205/4/205 206/5/206 204/1/204
f 205/4/205 207/6/207 206/5/206
f 206/5/206 215/3/215 204/1/204
f 206/5/206 216/7/216 215/3/215
f 207/6/207 208/8/208 206/5/206
f 207/6/207 209/9/209 208/8/208
f 208/8/208 216/7/216 206/5/206
f 208/8/208 217/10/217 216/7/216
f 209/9/209 210/11/210 208/8/208
f 209/9/209 211/12/211 210/11/210
f 210/11/210 217/10/217 208/8/208
f 210/11/210 218/13/218 217/10/217
f 211/12/211 212/14/212 210/11/210
f 211/12/211 213/15/213 212/14/212
f 212/14/212 218/13/218 210/11/210
f 219/16/219 222/18/222 220/17/220
f 220/17/220 221/19/221 219/16/219
f 220/17/220 223/20/223 221/19/221
f 223/20/223 224/21/224 221/19/221
f 223/20/223 225/22/225 224/21/224
f 226/23/226 229/25/229 227/24/227
f 227/24/227 228/26/228 226/23/226
f 227/24/227 230/27/230 228/26/228
f 230/27/230 231/28/231 228/26/228
f 230/27/230 232/22/232 231/28/231
