# Wavefront OBJ
# Created by fragMOTION
# http://www.fragmosoft.com

mtllib varen.mtl
# 195 vertices
v 11.7418 -4.30932 5.73943
v 1.03688 -2.93408 -3.07202
v -11.0355 -4.30932 3.74667
v 10.899 6.85817 15.3734
v 0.013784 10.6214 8.62206
v -11.8784 6.85817 13.3807
v 9.43543 13.3865 32.1019
v -1.76272 18.5458 28.9276
v -13.342 13.3866 30.1091
v 7.73699 13.5549 51.5152
v -3.82434 18.7501 52.4921
v -15.0404 13.5549 49.5224
v 6.25137 7.31891 68.4959
v -5.62763 11.1807 73.1038
v -16.526 7.31891 66.5031
v -11.7425 -4.20704 -9.68999
v -1e-006 -2.73075 -1.65842
v 11.7425 -4.20704 -9.68999
v -11.7425 6.9792 -19.9243
v -2e-006 10.983 -14.2051
v 11.7425 6.9792 -19.9243
v -11.7425 13.0636 -37.4462
v -3e-006 18.4421 -35.6861
v 11.7425 13.0636 -37.4462
v -11.7425 12.2943 -57.2109
v -4e-006 17.499 -59.9166
v 11.7425 12.2943 -57.2109
v -11.7425 4.89282 -73.5278
v -5e-006 8.42521 -79.9204
v 11.7425 4.89282 -73.5278
v 4.56244 -4.02685 -15.5383
v 1.79472 -2.2874 -0.780371
v 14.4755 -4.02685 7.26031
v 15.1972 7.00604 -20.1624
v 15.1848 11.6039 -6.60255
v 25.1103 7.00604 2.63616
v 32.6733 11.7085 -27.7612
v 37.1887 17.5248 -16.1701
v 42.5864 11.7085 -4.96267
v 50.7569 8.40326 -35.6242
v 59.9574 13.3631 -26.0702
v 60.67 8.40326 -12.8256
v 62.9975 -1.73081 -40.9465
v 75.3692 0.603501 -32.7715
v 72.9106 -1.73081 -18.148
v -0.104242 -3.99203 14.8403
v 0.454597 -2.24357 -0.242432
v -13.3466 -3.99204 -6.35196
v -9.98973 7.09806 21.0174
v -11.9921 11.7198 7.5351
v -23.2321 7.09807 -0.174821
v -26.2345 11.825 31.1683
v -32.4456 17.6713 20.3159
v -39.4769 11.825 9.97604
v -43.0439 8.50253 41.672
v -53.61 13.4881 33.5409
v -56.2863 8.50253 20.4798
v -54.422 -1.68409 48.7818
v -67.936 0.66233 42.4928
v -67.6644 -1.68409 27.5896
v -18.737 -1.50341 2.49881
v 0.116446 -0.000977 -0.386793
v 3.9848 -1.50341 -19.0634
v -26.4587 15.4228 -5.63822
v -8.86124 19.6783 -9.84729
v -3.73695 15.4228 -27.2004
v -40.6079 27.9635 -20.5483
v -25.3117 34.2586 -27.1825
v -17.8861 27.9635 -42.1105
v -58.8127 34.0163 -39.7322
v -46.4776 41.296 -49.4866
v -36.091 34.0163 -61.2944
v -78.0217 32.5668 -59.9742
v -68.8108 39.6107 -73.0209
v -55.2999 32.5668 -81.5364
v 18.6999 -0.871141 2.50713
v 0.20889 0.047132 -2.50357
v -10.7352 -0.87114 13.2206
v 21.2394 18.2501 9.48447
v 2.98471 20.9474 5.12294
v -8.19568 18.2501 20.198
v 26.1595 35.5559 23.0023
v 8.36256 39.8634 19.8984
v -3.27561 35.5559 33.7158
v 33.152 49.9629 42.214
v 16.0057 55.6108 40.8977
v 3.71692 49.9629 52.9276
v 41.7792 60.5687 65.9169
v 25.4355 67.2034 66.8059
v 12.344 60.5687 76.6304
v 15.791 -4.38609 -2.15281
v 1.98196 -2.94318 -3.20641
v -4.01013 -4.38608 9.27939
v 20.7859 6.47925 6.49857
v 8.11099 10.3893 7.40937
v 0.984752 6.47925 17.9308
v 29.3263 12.3478 21.2909
v 18.5905 17.5903 25.5605
v 9.52512 12.3478 32.7231
v 38.9339 11.5165 37.9318
v 30.3797 16.5703 45.9799
v 19.1327 11.5165 49.364
v 46.8209 4.22678 51.5925
v 40.0576 7.62534 62.7424
v 27.0198 4.22678 63.0247
v -7.37433 -0.871142 -18.3398
v 0.521017 0.047132 -0.884517
v 19.6155 -0.87114 -2.4416
v -3.6058 18.25 -24.7375
v 4.64018 20.9474 -7.87747
v 23.3841 18.2501 -8.8393
v 3.6953 35.5559 -37.1324
v 12.6206 39.8634 -21.4255
v 30.6852 35.5559 -21.2341
v 14.0718 49.9629 -54.7482
v 23.9625 55.6108 -40.6803
v 41.0617 49.9629 -38.8499
v 26.8739 60.5687 -76.4819
v 37.9558 67.2034 -64.4362
v 53.8638 60.5687 -60.5837
v 10.2757 -2.51607 -12.8744
v 0.855336 -1.75085 0.014928
v 9.82017 -2.51607 13.2252
v 16.4624 13.4183 -12.7664
v 7.61761 15.666 0.132963
v 16.0068 13.4183 13.3331
v 28.4483 27.8398 -12.5572
v 20.7187 31.4294 0.361641
v 27.9928 27.8398 13.5424
v 45.483 39.8456 -12.2598
v 39.3384 44.5522 0.686644
v 45.0275 39.8456 13.8397
v 66.4999 48.6838 -11.893
v 62.3106 54.2127 1.08762
v 66.0443 48.6838 14.2065
v -10.0495 -2.51607 13.0518
v -0.855467 -1.75085 0
v -10.0495 -2.51607 -13.0518
v -16.2371 13.4183 13.0518
v -7.61877 15.666 0
v -16.2371 13.4183 -13.0518
v -28.2249 27.8398 13.0518
v -20.7219 31.4294 3e-006
v -28.2249 27.8398 -13.0518
v -45.2622 39.8456 13.0518
v -39.3444 44.5522 7e-006
v -45.2622 39.8456 -13.0517
v -66.2822 48.6838 13.0518
v -62.3201 54.2127 1.4e-005
v -66.2822 48.6838 -13.0517
v 16.5924 -3.20751 -9.72655
v 2.27324 -2.03469 -3.89473
v 2.76974 -3.2075 11.5585
v 23.996 10.6868 -4.91858
v 10.8295 14.0228 1.66177
v 10.1734 10.6868 16.3664
v 37.6513 21.247 3.94926
v 26.6107 26.2271 11.9102
v 23.8286 21.247 25.2343
v 55.4335 26.83 15.4971
v 47.1613 32.6793 25.2559
v 41.6108 26.83 36.7822
v 74.5757 26.5671 27.9282
v 69.2837 32.3754 39.6224
v 60.753 26.5671 49.2132
v -11.9134 -3.96181 6.44074
v 0.425266 -2.33862 -1.95359
v -2.87374 -3.96181 -16.5078
v -22.2178 7.45686 2.38172
v -12.3465 11.8142 -6.98453
v -13.1782 7.45686 -20.5668
v -39.575 13.133 -4.45545
v -33.8598 18.8495 -15.4588
v -30.5354 13.133 -27.404
v -58.5076 11.2754 -11.9132
v -57.3257 16.5471 -24.7023
v -49.4679 11.2754 -34.8617
v -73.0411 2.47028 -17.6381
v -75.3392 5.63359 -31.798
v -64.0014 2.47028 -40.5866
v 10.0014 -2.20113 10.7666
v 0.731118 -1.15057 -3.52035
v -15.8619 -2.20114 0.317095
v 6.92553 13.9955 18.3797
v -2.72321 17.0386 5.02942
v -18.9379 13.9955 7.93026
v 1.0916 27.6355 32.8192
v -9.27485 32.3567 21.2453
v -24.7718 27.6355 22.3698
v -6.8974 37.3093 52.5927
v -18.2467 43.2206 43.4514
v -32.7608 37.3093 42.1432
v -16.2158 42.017 75.6565
v -28.7114 48.5074 69.3526
v -42.0792 42.017 65.207
# 15 texture vertices
vt 0.24793 0.475228
vt 0.24793 0.299172
vt -0.00207 0.482475
vt -0.00207 0.306418
vt 0.24793 0.123116
vt -0.00207 0.130362
vt 0.49793 0.463151
vt 0.49793 0.287095
vt 0.49793 0.111038
vt 0.74793 0.429334
vt 0.74793 0.253278
vt 0.74793 0.077222
vt 0.99793 0.364117
vt 0.99793 0.188061
vt 0.99793 0.012004
# 195 normals
vn 0.567517 0.561965 -0.601764
vn -0.129968 0.642024 -0.755588
vn -0.4544 0.561965 -0.69117
vn 0.510914 0.761183 -0.399458
vn 0.0640155 0.820506 -0.568042
vn -0.44893 0.667556 -0.593996
vn 0.435216 0.896989 -0.0774532
vn 0.0214323 0.982291 -0.186134
vn -0.415018 0.872059 -0.259372
vn 0.414609 0.876998 0.242844
vn -0.0193494 0.985596 0.168009
vn -0.432846 0.899373 0.061419
vn 0.40874 0.844555 0.345916
vn 0.129845 0.927025 0.351802
vn -0.462598 0.844555 0.269684
vn -0.507832 0.581496 0.635585
vn 0.192814 0.662349 0.723959
vn 0.507832 0.581496 0.635585
vn -0.46888 0.778111 0.417965
vn -0.0143842 0.838367 0.544916
vn 0.494005 0.686272 0.533845
vn -0.424612 0.902194 0.0758384
vn -0.00417784 0.989269 0.146046
vn 0.432147 0.88208 0.187575
vn -0.440869 0.858535 -0.261825
vn 0.00650767 0.973511 -0.228549
vn 0.429174 0.890867 -0.148879
vn -0.446384 0.814922 -0.369654
vn -0.164028 0.898354 -0.407499
vn 0.446383 0.814922 -0.369653
vn -0.746584 0.629848 -0.214253
vn -0.546824 0.711831 0.440772
vn -0.352475 0.629848 0.692137
vn -0.505735 0.816858 -0.277444
vn -0.441731 0.879616 0.17649
vn -0.251589 0.731128 0.634156
vn -0.142627 0.905809 -0.398958
vn -0.0349444 0.999293 0.0138941
vn 0.081194 0.900115 0.428019
vn 0.193084 0.782385 -0.592109
vn 0.36479 0.91966 -0.145446
vn 0.437208 0.849714 0.294679
vn 0.297093 0.699944 -0.649472
vn 0.474673 0.783721 -0.400582
vn 0.67761 0.699945 0.225658
vn 0.770052 0.629848 0.101547
vn 0.475667 0.711831 -0.516756
vn 0.246299 0.629848 -0.736634
vn 0.541189 0.816858 0.199644
vn 0.410792 0.879616 -0.239843
vn 0.155091 0.731128 -0.664378
vn 0.200031 0.905809 0.373494
vn 0.032507 0.999293 -0.0189067
vn -0.143567 0.900115 -0.411316
vn -0.103444 0.782385 0.614145
vn -0.339285 0.91966 0.197768
vn -0.475962 0.849714 -0.226819
vn -0.197832 0.699944 0.686251
vn -0.41025 0.783721 0.466344
vn -0.703522 0.699944 -0.123022
vn 0.0973143 0.466924 0.878926
vn 0.711045 0.540556 0.449682
vn 0.872629 0.466925 0.14318
vn 0.016065 0.668765 0.7433
vn 0.465959 0.723483 0.509368
vn 0.814294 0.571729 0.100253
vn -0.123804 0.8465 0.517794
vn 0.25229 0.926977 0.277602
vn 0.593743 0.803479 -0.0434835
vn -0.282668 0.904994 0.317937
vn 0.0578702 0.996287 0.0637454
vn 0.392277 0.896154 -0.207428
vn -0.335301 0.907446 0.253208
vn -0.145113 0.987143 0.0670195
vn 0.270409 0.907446 -0.32159
vn 0.263365 0.29963 -0.916985
vn -0.518097 0.353083 -0.779043
vn -0.791175 0.29963 -0.533163
vn 0.270163 0.466295 -0.842366
vn -0.287658 0.509121 -0.811202
vn -0.77312 0.384221 -0.504637
vn 0.281345 0.661502 -0.695169
vn -0.224289 0.735888 -0.638876
vn -0.692178 0.60428 -0.394632
vn 0.301077 0.78932 -0.535096
vn -0.159561 0.875221 -0.456649
vn -0.603012 0.753382 -0.262284
vn 0.307521 0.821808 -0.479648
vn 0.0262317 0.908882 -0.416228
vn -0.543887 0.821808 -0.169761
vn 0.122214 0.583239 -0.803054
vn -0.527966 0.664153 -0.529294
vn -0.756572 0.583239 -0.295687
vn 0.197789 0.779587 -0.594243
vn -0.258791 0.839927 -0.477021
vn -0.693496 0.687926 -0.214061
vn 0.331453 0.902562 -0.274811
vn -0.0676132 0.989814 -0.125283
vn -0.466183 0.882902 0.0561928
vn 0.515877 0.856599 0.0104164
vn 0.111222 0.972208 0.206013
vn -0.295272 0.889913 0.347663
vn 0.574961 0.811886 0.101293
vn 0.349299 0.895397 0.276142
vn -0.199758 0.811886 0.548578
vn -0.875088 0.29963 0.380055
vn -0.271579 0.353083 0.895308
vn 0.0918474 0.29963 0.949624
vn -0.821835 0.466295 0.327347
vn -0.44297 0.509121 0.737952
vn 0.102374 0.384221 0.917548
vn -0.715367 0.661502 0.225089
vn -0.350307 0.735888 0.579442
vn 0.135772 0.60428 0.785119
vn -0.604401 0.78932 0.108044
vn -0.250868 0.875221 0.413586
vn 0.181178 0.753382 0.632132
vn -0.565716 0.821808 0.0678025
vn -0.337857 0.908882 0.244513
vn 0.214964 0.821808 0.527658
vn -0.761698 0.29963 -0.57449
vn -0.912969 0.353083 0.204501
vn -0.781283 0.29963 0.547557
vn -0.689599 0.466295 -0.554096
vn -0.860409 0.509121 -0.0221569
vn -0.748181 0.384221 0.540924
vn -0.548172 0.661502 -0.511784
vn -0.676821 0.735888 -0.0195608
vn -0.616475 0.60428 0.50478
vn -0.391659 0.78932 -0.47284
vn -0.4835 0.875221 -0.0146847
vn -0.460963 0.753382 0.468966
vn -0.337584 0.821808 -0.458987
vn -0.379182 0.908882 -0.173652
vn -0.353397 0.821808 0.446925
vn 0.771608 0.29963 0.561109
vn 0.90926 0.353083 -0.220403
vn 0.771608 0.29963 -0.561109
vn 0.699164 0.466295 0.541976
vn 0.860665 0.509121 0.00713709
vn 0.738627 0.384221 -0.553899
vn 0.55702 0.661502 0.502139
vn 0.677059 0.735888 0.00774549
vn 0.607572 0.60428 -0.515463
vn 0.399851 0.78932 0.465933
vn 0.483683 0.875221 0.00624419
vn 0.452708 0.753382 -0.476939
vn 0.345543 0.821808 0.453025
vn 0.382155 0.908882 0.167008
vn 0.345543 0.821808 -0.453025
vn -0.304383 0.452285 -0.838326
vn -0.805572 0.524572 -0.275461
vn -0.889652 0.452285 0.0629098
vn -0.199631 0.653065 -0.730516
vn -0.58636 0.706997 -0.395396
vn -0.826183 0.556274 0.0893334
vn -0.0194625 0.835266 -0.549501
vn -0.333149 0.915321 -0.226271
vn -0.588214 0.790096 0.172489
vn 0.172696 0.902498 -0.394554
vn -0.10105 0.992505 -0.0687248
vn -0.360349 0.890338 0.278294
vn 0.236158 0.908623 -0.344432
vn 0.091998 0.98841 -0.120758
vn -0.2186 0.908623 0.355834
vn 0.393473 0.602052 0.694775
vn 0.725361 0.683533 0.0814484
vn 0.761603 0.602052 -0.239779
vn 0.194127 0.795144 0.574509
vn 0.474886 0.856419 0.202556
vn 0.656557 0.705603 -0.266567
vn -0.124463 0.905466 0.40576
vn 0.0930331 0.994863 0.0398999
vn 0.296461 0.890986 -0.343882
vn -0.466261 0.832241 0.29996
vn -0.271324 0.955442 -0.116244
vn -0.0306446 0.877315 -0.478936
vn -0.574006 0.774389 0.266157
vn -0.512326 0.858561 -0.0198868
vn -0.238283 0.774389 -0.586125
vn 0.789224 0.377545 -0.48434
vn 0.127382 0.441641 -0.888103
vn -0.23127 0.377545 -0.896646
vn 0.72362 0.566848 -0.393774
vn 0.304256 0.616119 -0.726516
vn -0.24054 0.474499 -0.846753
vn 0.6037 0.763536 -0.229258
vn 0.210378 0.841599 -0.497446
vn -0.263663 0.709906 -0.653082
vn 0.495329 0.867006 -0.0543139
vn 0.117485 0.953674 -0.276955
vn -0.302115 0.841078 -0.44868
vn 0.459257 0.888294 0.00423702
vn 0.21314 0.970581 -0.111997
vn -0.333305 0.888294 -0.315979
usemtl Texture
g varen
s 1
f 4/1/4 1/3/1 5/2/5
f 2/4/2 5/2/5 1/3/1
f 5/2/5 2/4/2 6/5/6
f 3/6/3 6/5/6 2/4/2
f 7/7/7 4/1/4 8/8/8
f 5/2/5 8/8/8 4/1/4
f 8/8/8 5/2/5 9/9/9
f 6/5/6 9/9/9 5/2/5
f 10/10/10 7/7/7 11/11/11
f 8/8/8 11/11/11 7/7/7
f 11/11/11 8/8/8 12/12/12
f 9/9/9 12/12/12 8/8/8
f 13/13/13 10/10/10 14/14/14
f 11/11/11 14/14/14 10/10/10
f 14/14/14 11/11/11 15/15/15
f 12/12/12 15/15/15 11/11/11
f 19/1/19 16/3/16 20/2/20
f 17/4/17 20/2/20 16/3/16
f 20/2/20 17/4/17 21/5/21
f 18/6/18 21/5/21 17/4/17
f 22/7/22 19/1/19 23/8/23
f 20/2/20 23/8/23 19/1/19
f 23/8/23 20/2/20 24/9/24
f 21/5/21 24/9/24 20/2/20
f 25/10/25 22/7/22 26/11/26
f 23/8/23 26/11/26 22/7/22
f 26/11/26 23/8/23 27/12/27
f 24/9/24 27/12/27 23/8/23
f 28/13/28 25/10/25 29/14/29
f 26/11/26 29/14/29 25/10/25
f 29/14/29 26/11/26 30/15/30
f 27/12/27 30/15/30 26/11/26
f 34/1/34 31/3/31 35/2/35
f 32/4/32 35/2/35 31/3/31
f 35/2/35 32/4/32 36/5/36
f 33/6/33 36/5/36 32/4/32
f 37/7/37 34/1/34 38/8/38
f 35/2/35 38/8/38 34/1/34
f 38/8/38 35/2/35 39/9/39
f 36/5/36 39/9/39 35/2/35
f 40/10/40 37/7/37 41/11/41
f 38/8/38 41/11/41 37/7/37
f 41/11/41 38/8/38 42/12/42
f 39/9/39 42/12/42 38/8/38
f 43/13/43 40/10/40 44/14/44
f 41/11/41 44/14/44 40/10/40
f 44/14/44 41/11/41 45/15/45
f 42/12/42 45/15/45 41/11/41
f 49/1/49 46/3/46 50/2/50
f 47/4/47 50/2/50 46/3/46
f 50/2/50 47/4/47 51/5/51
f 48/6/48 51/5/51 47/4/47
f 52/7/52 49/1/49 53/8/53
f 50/2/50 53/8/53 49/1/49
f 53/8/53 50/2/50 54/9/54
f 51/5/51 54/9/54 50/2/50
f 55/10/55 52/7/52 56/11/56
f 53/8/53 56/11/56 52/7/52
f 56/11/56 53/8/53 57/12/57
f 54/9/54 57/12/57 53/8/53
f 58/13/58 55/10/55 59/14/59
f 56/11/56 59/14/59 55/10/55
f 59/14/59 56/11/56 60/15/60
f 57/12/57 60/15/60 56/11/56
f 64/1/64 61/3/61 65/2/65
f 62/4/62 65/2/65 61/3/61
f 65/2/65 62/4/62 66/5/66
f 63/6/63 66/5/66 62/4/62
f 67/7/67 64/1/64 68/8/68
f 65/2/65 68/8/68 64/1/64
f 68/8/68 65/2/65 69/9/69
f 66/5/66 69/9/69 65/2/65
f 70/10/70 67/7/67 71/11/71
f 68/8/68 71/11/71 67/7/67
f 71/11/71 68/8/68 72/12/72
f 69/9/69 72/12/72 68/8/68
f 73/13/73 70/10/70 74/14/74
f 71/11/71 74/14/74 70/10/70
f 74/14/74 71/11/71 75/15/75
f 72/12/72 75/15/75 71/11/71
f 79/1/79 76/3/76 80/2/80
f 77/4/77 80/2/80 76/3/76
f 80/2/80 77/4/77 81/5/81
f 78/6/78 81/5/81 77/4/77
f 82/7/82 79/1/79 83/8/83
f 80/2/80 83/8/83 79/1/79
f 83/8/83 80/2/80 84/9/84
f 81/5/81 84/9/84 80/2/80
f 85/10/85 82/7/82 86/11/86
f 83/8/83 86/11/86 82/7/82
f 86/11/86 83/8/83 87/12/87
f 84/9/84 87/12/87 83/8/83
f 88/13/88 85/10/85 89/14/89
f 86/11/86 89/14/89 85/10/85
f 89/14/89 86/11/86 90/15/90
f 87/12/87 90/15/90 86/11/86
f 94/1/94 91/3/91 95/2/95
f 92/4/92 95/2/95 91/3/91
f 95/2/95 92/4/92 96/5/96
f 93/6/93 96/5/96 92/4/92
f 97/7/97 94/1/94 98/8/98
f 95/2/95 98/8/98 94/1/94
f 98/8/98 95/2/95 99/9/99
f 96/5/96 99/9/99 95/2/95
f 100/10/100 97/7/97 101/11/101
f 98/8/98 101/11/101 97/7/97
f 101/11/101 98/8/98 102/12/102
f 99/9/99 102/12/102 98/8/98
f 103/13/103 100/10/100 104/14/104
f 101/11/101 104/14/104 100/10/100
f 104/14/104 101/11/101 105/15/105
f 102/12/102 105/15/105 101/11/101
f 109/1/109 106/3/106 110/2/110
f 107/4/107 110/2/110 106/3/106
f 110/2/110 107/4/107 111/5/111
f 108/6/108 111/5/111 107/4/107
f 112/7/112 109/1/109 113/8/113
f 110/2/110 113/8/113 109/1/109
f 113/8/113 110/2/110 114/9/114
f 111/5/111 114/9/114 110/2/110
f 115/10/115 112/7/112 116/11/116
f 113/8/113 116/11/116 112/7/112
f 116/11/116 113/8/113 117/12/117
f 114/9/114 117/12/117 113/8/113
f 118/13/118 115/10/115 119/14/119
f 116/11/116 119/14/119 115/10/115
f 119/14/119 116/11/116 120/15/120
f 117/12/117 120/15/120 116/11/116
f 124/1/124 121/3/121 125/2/125
f 122/4/122 125/2/125 121/3/121
f 125/2/125 122/4/122 126/5/126
f 123/6/123 126/5/126 122/4/122
f 127/7/127 124/1/124 128/8/128
f 125/2/125 128/8/128 124/1/124
f 128/8/128 125/2/125 129/9/129
f 126/5/126 129/9/129 125/2/125
f 130/10/130 127/7/127 131/11/131
f 128/8/128 131/11/131 127/7/127
f 131/11/131 128/8/128 132/12/132
f 129/9/129 132/12/132 128/8/128
f 133/13/133 130/10/130 134/14/134
f 131/11/131 134/14/134 130/10/130
f 134/14/134 131/11/131 135/15/135
f 132/12/132 135/15/135 131/11/131
f 139/1/139 136/3/136 140/2/140
f 137/4/137 140/2/140 136/3/136
f 140/2/140 137/4/137 141/5/141
f 138/6/138 141/5/141 137/4/137
f 142/7/142 139/1/139 143/8/143
f 140/2/140 143/8/143 139/1/139
f 143/8/143 140/2/140 144/9/144
f 141/5/141 144/9/144 140/2/140
f 145/10/145 142/7/142 146/11/146
f 143/8/143 146/11/146 142/7/142
f 146/11/146 143/8/143 147/12/147
f 144/9/144 147/12/147 143/8/143
f 148/13/148 145/10/145 149/14/149
f 146/11/146 149/14/149 145/10/145
f 149/14/149 146/11/146 150/15/150
f 147/12/147 150/15/150 146/11/146
f 154/1/154 151/3/151 155/2/155
f 152/4/152 155/2/155 151/3/151
f 155/2/155 152/4/152 156/5/156
f 153/6/153 156/5/156 152/4/152
f 157/7/157 154/1/154 158/8/158
f 155/2/155 158/8/158 154/1/154
f 158/8/158 155/2/155 159/9/159
f 156/5/156 159/9/159 155/2/155
f 160/10/160 157/7/157 161/11/161
f 158/8/158 161/11/161 157/7/157
f 161/11/161 158/8/158 162/12/162
f 159/9/159 162/12/162 158/8/158
f 163/13/163 160/10/160 164/14/164
f 161/11/161 164/14/164 160/10/160
f 164/14/164 161/11/161 165/15/165
f 162/12/162 165/15/165 161/11/161
f 169/1/169 166/3/166 170/2/170
f 167/4/167 170/2/170 166/3/166
f 170/2/170 167/4/167 171/5/171
f 168/6/168 171/5/171 167/4/167
f 172/7/172 169/1/169 173/8/173
f 170/2/170 173/8/173 169/1/169
f 173/8/173 170/2/170 174/9/174
f 171/5/171 174/9/174 170/2/170
f 175/10/175 172/7/172 176/11/176
f 173/8/173 176/11/176 172/7/172
f 176/11/176 173/8/173 177/12/177
f 174/9/174 177/12/177 173/8/173
f 178/13/178 175/10/175 179/14/179
f 176/11/176 179/14/179 175/10/175
f 179/14/179 176/11/176 180/15/180
f 177/12/177 180/15/180 176/11/176
f 184/1/184 181/3/181 185/2/185
f 182/4/182 185/2/185 181/3/181
f 185/2/185 182/4/182 186/5/186
f 183/6/183 186/5/186 182/4/182
f 187/7/187 184/1/184 188/8/188
f 185/2/185 188/8/188 184/1/184
f 188/8/188 185/2/185 189/9/189
f 186/5/186 189/9/189 185/2/185
f 190/10/190 187/7/187 191/11/191
f 188/8/188 191/11/191 187/7/187
f 191/11/191 188/8/188 192/12/192
f 189/9/189 192/12/192 188/8/188
f 193/13/193 190/10/190 194/14/194
f 191/11/191 194/14/194 190/10/190
f 194/14/194 191/11/191 195/15/195
f 192/12/192 195/15/195 191/11/191
