# Wavefront OBJ file
# Exported by Misfit Model 3D 1.3.7
# Wed Feb  6 11:21:24 2013

mtllib spot.mtl

# 42 Vertices
v 1.7 -0.081708 -0.370764
v 1.7 -1.437207 0.51333
v -1.7 -1.437207 0.51333
v -1.7 -0.081708 -0.370765
v 1.700001 0.855438 0.345874
v 1.699999 0.079428 1.8171
v -1.700001 0.079428 1.8171
v -1.7 0.855439 0.345873
v 1.7 0.393963 1.245618
v -1.7 0.393963 1.245618
v -0.2 1.100778 0.879056
v 0.2 1.100778 0.879057
v -0.2 1.100694 0.543646
v 0.2 1.100693 0.543647
v 0.140001 1.250492 0.57292
v -0.14 1.250493 0.572919
v 0.14 1.236551 0.709707
v -0.14 1.236552 0.709706
v -0.199999 1.253173 -0.679999
v 0.200001 1.253173 -0.679999
v 0.280001 1.100386 -0.67996
v -0.28 1.100386 -0.679961
v -1.2 0.6976 -0.679922
v 1.200001 0.697599 -0.679921
v 1.200002 1.605958 -0.680037
v -1.2 1.605959 -0.680038
v -1.199999 1.6059 -0.909217
v 1.200002 1.6059 -0.909217
v 1.200001 0.69754 -0.909101
v -1.2 0.697541 -0.909102
v 1.9 -1.550551 0.423209
v -1.9 -1.55055 0.423208
v 1.899999 0.117748 1.857356
v -1.900001 0.117749 1.857355
v -1.900001 0.046041 1.94077
v 1.899999 0.046041 1.940771
v -1.9 -1.622258 0.506623
v 1.9 -1.622258 0.506624
v 0.95 0.64737 1.062338
v -0.95 0.64737 1.062337
v -0.95 0.878066 0.44476
v 0.950001 0.878066 0.44476

# 240 Texture Coordinates
vt 0.801007 0.503098
vt 0.682368 0.503098
vt 0.682368 0.253847
vt 0.801007 0.503098
vt 0.682368 0.253847
vt 0.801007 0.253847
vt 0.887493 0.503098
vt 0.801007 0.503098
vt 0.801007 0.253847
vt 0.887493 0.503098
vt 0.801007 0.253847
vt 0.887493 0.253847
vt 0.101 0.658276
vt 0.101 0.584065
vt 0.487795 0.584066
vt 0.101 0.658276
vt 0.487795 0.584066
vt 0.487795 0.658276
vt 0.682368 0.503098
vt 0.801007 0.503098
vt 0.765481 0.6214
vt 0.765481 0.6214
vt 0.801007 0.503098
vt 0.829851 0.584634
vt 0.765481 0.6214
vt 0.72328 0.643894
vt 0.682368 0.503098
vt 0.765481 0.135546
vt 0.801007 0.253847
vt 0.682368 0.253847
vt 0.72328 0.113051
vt 0.765481 0.135546
vt 0.682368 0.253847
vt 0.765481 0.135546
vt 0.82985 0.172312
vt 0.801007 0.253847
vt 0.862882 0.700036
vt 0.882238 0.684871
vt 0.887849 0.695504
vt 0.862882 0.700036
vt 0.887849 0.695504
vt 0.879366 0.700949
vt 0.882235 0.072078
vt 0.86288 0.056913
vt 0.879364 0.056
vt 0.882235 0.072078
vt 0.879364 0.056
vt 0.887847 0.061445
vt 0.277317 0.751818
vt 0.320788 0.75155
vt 0.314412 0.775179
vt 0.277317 0.751818
vt 0.314412 0.775179
vt 0.283983 0.775367
vt 0.284075 0.790309
vt 0.283983 0.775367
vt 0.314412 0.775179
vt 0.284075 0.790309
vt 0.314412 0.775179
vt 0.314505 0.790122
vt 0.887849 0.695504
vt 0.882238 0.684871
vt 0.951548 0.627675
vt 0.887849 0.695504
vt 0.951548 0.627675
vt 0.959294 0.637662
vt 0.284075 0.790309
vt 0.314505 0.790122
vt 0.321865 0.926246
vt 0.284075 0.790309
vt 0.321865 0.926246
vt 0.278394 0.926514
vt 0.882235 0.072078
vt 0.887847 0.061445
vt 0.959281 0.119294
vt 0.882235 0.072078
vt 0.959281 0.119294
vt 0.951534 0.129279
vt 0.914334 0.288584
vt 0.909978 0.272184
vt 0.959275 0.255577
vt 0.914334 0.288584
vt 0.959275 0.255577
vt 0.965374 0.278538
vt 0.69254 0.738489
vt 0.753263 0.738489
vt 0.85302 0.782164
vt 0.69254 0.738489
vt 0.85302 0.782164
vt 0.592783 0.782164
vt 0.976415 0.859922
vt 0.985089 0.876489
vt 0.876657 0.914742
vt 0.976415 0.859922
vt 0.876657 0.914742
vt 0.876657 0.816246
vt 0.762474 0.987114
vt 0.701053 0.987114
vt 0.592621 0.948861
vt 0.762474 0.987114
vt 0.592621 0.948861
vt 0.852859 0.948861
vt 0.458286 0.876488
vt 0.46696 0.859921
vt 0.566718 0.816246
vt 0.458286 0.876488
vt 0.566718 0.816246
vt 0.566718 0.914742
vt 0.566718 0.914742
vt 0.566718 0.816246
vt 0.591568 0.816243
vt 0.566718 0.914742
vt 0.591568 0.816243
vt 0.591568 0.914739
vt 0.852859 0.948861
vt 0.592621 0.948861
vt 0.591568 0.914739
vt 0.852859 0.948861
vt 0.591568 0.914739
vt 0.851806 0.914739
vt 0.876657 0.816246
vt 0.876657 0.914742
vt 0.851806 0.914739
vt 0.876657 0.816246
vt 0.851806 0.914739
vt 0.851806 0.816243
vt 0.592783 0.782164
vt 0.85302 0.782164
vt 0.851806 0.816243
vt 0.592783 0.782164
vt 0.851806 0.816243
vt 0.591568 0.816243
vt 0.591568 0.816243
vt 0.851806 0.816243
vt 0.851806 0.914739
vt 0.591568 0.816243
vt 0.851806 0.914739
vt 0.591568 0.914739
vt 0.125 0.125
vt 0.5 0.125
vt 0.5 0.15625
vt 0.125 0.125
vt 0.5 0.15625
vt 0.125 0.15625
vt 0.5625 0.1875
vt 0.5625 0.40625
vt 0.53125 0.40625
vt 0.5625 0.1875
vt 0.53125 0.40625
vt 0.53125 0.1875
vt 0.0625 0.40625
vt 0.0625 0.1875
vt 0.09375 0.1875
vt 0.0625 0.40625
vt 0.09375 0.1875
vt 0.09375 0.40625
vt 0.5 0.46875
vt 0.125 0.46875
vt 0.125 0.4375
vt 0.5 0.46875
vt 0.125 0.4375
vt 0.5 0.4375
vt 0.5 0.4375
vt 0.125 0.4375
vt 0.125 0.40625
vt 0.5 0.4375
vt 0.125 0.40625
vt 0.5 0.40625
vt 0.09375 0.40625
vt 0.09375 0.1875
vt 0.125 0.1875
vt 0.09375 0.40625
vt 0.125 0.1875
vt 0.125 0.40625
vt 0.53125 0.1875
vt 0.53125 0.40625
vt 0.5 0.40625
vt 0.53125 0.1875
vt 0.5 0.40625
vt 0.5 0.1875
vt 0.125 0.15625
vt 0.5 0.15625
vt 0.5 0.1875
vt 0.125 0.15625
vt 0.5 0.1875
vt 0.125 0.1875
vt 0.5 0.1875
vt 0.5 0.40625
vt 0.125 0.40625
vt 0.5 0.1875
vt 0.125 0.40625
vt 0.125 0.1875
vt 0.487795 0.658276
vt 0.401968 0.697899
vt 0.195482 0.699171
vt 0.487795 0.658276
vt 0.195482 0.699171
vt 0.101 0.658276
vt 0.401968 0.697899
vt 0.320788 0.75155
vt 0.277317 0.751818
vt 0.401968 0.697899
vt 0.277317 0.751818
vt 0.195482 0.699171
vt 0.765481 0.135546
vt 0.810976 0.097091
vt 0.852574 0.121696
vt 0.765481 0.135546
vt 0.852574 0.121696
vt 0.82985 0.172312
vt 0.810976 0.097091
vt 0.86288 0.056913
vt 0.882235 0.072078
vt 0.810976 0.097091
vt 0.882235 0.072078
vt 0.852574 0.121696
vt 0.829851 0.584634
vt 0.852575 0.63525
vt 0.810977 0.659855
vt 0.829851 0.584634
vt 0.810977 0.659855
vt 0.765481 0.6214
vt 0.852575 0.63525
vt 0.882238 0.684871
vt 0.862882 0.700036
vt 0.852575 0.63525
vt 0.862882 0.700036
vt 0.810977 0.659855
vt 0.887493 0.253847
vt 0.896204 0.252749
vt 0.912869 0.315485
vt 0.887493 0.253847
vt 0.912869 0.315485
vt 0.887493 0.503098
vt 0.896204 0.252749
vt 0.909978 0.272184
vt 0.914334 0.288584
vt 0.896204 0.252749
vt 0.914334 0.288584
vt 0.912869 0.315485

# 240 Vertex Normals
vn 0.0 -0.192769 -0.981244
vn 0.016181 0.40252 -0.915268
vn -0.006795 0.197061 -0.980368
vn 0.0 -0.192769 -0.981244
vn -0.006795 0.197061 -0.980368
vn 0.0 0.26566 -0.964067
vn 0.062912 0.96737 -0.245434
vn 0.0 -0.192769 -0.981244
vn 0.0 0.26566 -0.964067
vn 0.062912 0.96737 -0.245434
vn 0.0 0.26566 -0.964067
vn -0.024536 0.974643 -0.222417
vn -0.063876 0.847702 0.526613
vn -0.016415 0.859825 -0.510325
vn 0.006884 0.956639 -0.291196
vn -0.063876 0.847702 0.526613
vn 0.006884 0.956639 -0.291196
vn 0.047845 0.752479 0.656876
vn 0.716842 0.454518 -0.528726
vn 1.0 -0.000001 0.0
vn 0.955582 0.262242 0.134504
vn 0.955582 0.262242 0.134504
vn 1.0 -0.000001 0.0
vn 0.537562 0.771555 0.340191
vn 0.955582 0.262242 0.134504
vn 0.716842 0.454518 -0.528726
vn 0.716842 0.454518 -0.528726
vn -0.859754 0.467079 0.206544
vn -1.0 0.0 -0.0
vn -0.896933 0.288242 -0.335303
vn -0.466856 0.576484 -0.670606
vn -0.859754 0.467079 0.206544
vn -0.896933 0.288242 -0.335303
vn -0.859754 0.467079 0.206544
vn -0.737119 0.601287 0.308398
vn -1.0 0.0 -0.0
vn 0.513721 0.765493 0.387443
vn 0.573188 0.669392 -0.472619
vn 0.705574 0.706925 0.049215
vn 0.513721 0.765493 0.387443
vn 0.705574 0.706925 0.049215
vn 0.204172 0.916657 0.343591
vn -0.765105 0.639495 -0.075237
vn -0.289714 0.722164 0.628128
vn -0.570386 0.786676 0.236223
vn -0.765105 0.639495 -0.075237
vn -0.570386 0.786676 0.236223
vn -0.366203 0.928787 0.057006
vn -0.289714 0.722164 0.628128
vn 0.513721 0.765493 0.387443
vn 0.204172 0.916657 0.343591
vn -0.289714 0.722164 0.628128
vn 0.204172 0.916657 0.343591
vn -0.570386 0.786676 0.236223
vn -0.366203 0.928787 0.057006
vn -0.570386 0.786676 0.236223
vn 0.204172 0.916657 0.343591
vn -0.366203 0.928787 0.057006
vn 0.204172 0.916657 0.343591
vn 0.705574 0.706925 0.049215
vn 0.705574 0.706925 0.049215
vn 0.573188 0.669392 -0.472619
vn 0.492139 0.223551 0.841323
vn 0.705574 0.706925 0.049215
vn 0.492139 0.223551 0.841323
vn 0.220307 0.613261 0.758535
vn -0.366203 0.928787 0.057006
vn 0.705574 0.706925 0.049215
vn 0.338067 0.940946 0.018203
vn -0.366203 0.928787 0.057006
vn 0.338067 0.940946 0.018203
vn -0.704167 0.708861 0.04081
vn -0.765105 0.639495 -0.075237
vn -0.366203 0.928787 0.057006
vn -0.449845 0.452964 0.769716
vn -0.765105 0.639495 -0.075237
vn -0.449845 0.452964 0.769716
vn -0.274946 0.144115 0.950597
vn -0.000001 -1.0 0.000251
vn -0.000002 -1.0 0.000252
vn -0.000001 -1.0 0.000251
vn -0.000001 -1.0 0.000251
vn -0.000001 -1.0 0.000251
vn -0.0 -1.0 0.000251
vn 0.492139 0.223551 0.841323
vn -0.274946 0.144115 0.950597
vn -0.000005 0.000108 1.0
vn 0.492139 0.223551 0.841323
vn -0.000005 0.000108 1.0
vn 0.000027 0.000175 1.0
vn -0.274946 0.144115 0.950597
vn -0.491974 0.22429 0.841223
vn 0.000009 0.000155 1.0
vn -0.274946 0.144115 0.950597
vn 0.000009 0.000155 1.0
vn -0.000005 0.000108 1.0
vn -0.491974 0.22429 0.841223
vn 0.276328 0.144844 0.950086
vn -0.000002 0.000115 1.0
vn -0.491974 0.22429 0.841223
vn -0.000002 0.000115 1.0
vn 0.000009 0.000155 1.0
vn 0.276328 0.144844 0.950086
vn 0.492139 0.223551 0.841323
vn 0.000027 0.000175 1.0
vn 0.276328 0.144844 0.950086
vn 0.000027 0.000175 1.0
vn -0.000002 0.000115 1.0
vn 1.0 -0.000001 0.0
vn 1.0 -0.000001 0.0
vn 1.0 -0.000001 0.0
vn 1.0 -0.000001 0.0
vn 1.0 -0.000001 0.0
vn 1.0 -0.000001 0.0
vn 0.0 1.0 -0.000255
vn 0.0 1.0 -0.000253
vn 0.0 1.0 -0.000255
vn 0.0 1.0 -0.000255
vn 0.0 1.0 -0.000255
vn 0.0 1.0 -0.000257
vn -1.0 0.000001 -0.000002
vn -1.0 -0.0 -0.000005
vn -1.0 0.000001 -0.000002
vn -1.0 0.000001 -0.000002
vn -1.0 0.000001 -0.000002
vn -1.0 0.000001 -0.0
vn -0.0 -1.0 0.000257
vn -0.0 -1.0 0.000257
vn -0.0 -1.0 0.000257
vn -0.0 -1.0 0.000257
vn -0.0 -1.0 0.000257
vn -0.0 -1.0 0.000257
vn 0.0 -0.000127 -1.0
vn 0.0 -0.000127 -1.0
vn 0.0 -0.000127 -1.0
vn 0.0 -0.000127 -1.0
vn 0.0 -0.000127 -1.0
vn 0.0 -0.000128 -1.0
vn -0.006795 0.197061 -0.980368
vn 0.016181 0.40252 -0.915268
vn 0.008703 0.357233 -0.933975
vn -0.006795 0.197061 -0.980368
vn 0.008703 0.357233 -0.933975
vn -0.015287 0.112793 -0.993501
vn 0.514437 0.345218 -0.784971
vn 0.247288 0.92695 -0.282158
vn 0.33228 0.638329 -0.694353
vn 0.514437 0.345218 -0.784971
vn 0.33228 0.638329 -0.694353
vn 0.560102 0.523816 -0.641797
vn -0.298342 0.820778 -0.48715
vn -0.445174 0.176461 -0.877885
vn -0.331995 0.605725 -0.723102
vn -0.298342 0.820778 -0.48715
vn -0.331995 0.605725 -0.723102
vn -0.560464 0.580508 -0.59067
vn 0.006884 0.956639 -0.291196
vn -0.016415 0.859825 -0.510325
vn -0.008603 0.887353 -0.46101
vn 0.006884 0.956639 -0.291196
vn -0.008603 0.887353 -0.46101
vn 0.015159 0.969012 -0.246548
vn 0.0 0.964421 0.26437
vn 0.0 0.949782 -0.312913
vn -0.0 0.758318 0.651885
vn 0.0 0.964421 0.26437
vn -0.0 0.758318 0.651885
vn -0.0 0.75832 0.651883
vn -0.896933 0.288242 -0.335303
vn -0.466856 0.576483 -0.670606
vn -1.0 -0.0 -0.0
vn -0.896933 0.288242 -0.335303
vn -1.0 -0.0 -0.0
vn -1.0 -0.0 -0.0
vn 0.896934 0.288241 -0.335301
vn 0.466861 0.576482 -0.670603
vn 1.0 0.0 0.0
vn 0.896934 0.288241 -0.335301
vn 1.0 0.0 0.0
vn 1.0 0.0 0.0
vn 0.0 -0.39394 -0.919136
vn 0.0 0.214269 -0.976775
vn 0.0 -0.758318 -0.651885
vn 0.0 -0.39394 -0.919136
vn 0.0 -0.758318 -0.651885
vn 0.0 -0.758315 -0.651888
vn -0.0 -0.651885 0.758318
vn -0.0 -0.651885 0.758318
vn -0.0 -0.651885 0.758318
vn -0.0 -0.651885 0.758318
vn -0.0 -0.651885 0.758318
vn -0.0 -0.651885 0.758318
vn 0.047845 0.752479 0.656876
vn 0.125225 0.72034 0.682223
vn -0.194554 0.778769 0.596378
vn 0.047845 0.752479 0.656876
vn -0.194554 0.778769 0.596378
vn -0.063876 0.847702 0.526613
vn 0.125225 0.72034 0.682223
vn 0.513721 0.765493 0.387443
vn -0.289714 0.722164 0.628128
vn 0.125225 0.72034 0.682223
vn -0.289714 0.722164 0.628128
vn -0.194554 0.778769 0.596378
vn -0.562271 0.702444 0.436375
vn -0.194554 0.778769 0.596378
vn -0.134442 0.970537 -0.199958
vn -0.562271 0.702444 0.436375
vn -0.162097 0.957975 0.236659
vn -0.294064 0.93183 -0.212647
vn -0.194554 0.778769 0.596378
vn -0.289714 0.722164 0.628128
vn -0.765105 0.639495 -0.075237
vn -0.194554 0.778769 0.596378
vn -0.765105 0.639495 -0.075237
vn -0.134442 0.970537 -0.199958
vn 0.292143 0.927004 -0.235193
vn 0.152298 0.979234 -0.133813
vn 0.125225 0.72034 0.682223
vn 0.292143 0.927004 -0.235193
vn 0.125225 0.72034 0.682223
vn 0.634648 0.582183 0.508217
vn 0.152298 0.979234 -0.133813
vn 0.573188 0.669392 -0.472619
vn 0.513721 0.765493 0.387443
vn 0.152298 0.979234 -0.133813
vn 0.513721 0.765493 0.387443
vn 0.125225 0.72034 0.682223
vn -0.024536 0.974643 -0.222417
vn -0.134442 0.970537 -0.199958
vn 0.152298 0.979234 -0.133813
vn -0.024536 0.974643 -0.222417
vn 0.152298 0.979234 -0.133813
vn 0.062912 0.96737 -0.245434
vn -0.13741 0.924832 -0.35469
vn -0.765105 0.639495 -0.075237
vn 0.573188 0.669392 -0.472619
vn -0.13741 0.924832 -0.35469
vn 0.573188 0.669392 -0.472619
vn 0.152298 0.979234 -0.133813

# skin, 80 grouped triangles

usemtl skin
o skin
g skin

f 1/1/1 2/2/2 3/3/3
f 1/4/4 3/5/5 4/6/6
f 5/7/7 1/8/8 4/9/9
f 5/10/10 4/11/11 8/12/12
f 10/13/13 7/14/14 6/15/15
f 10/16/16 6/17/17 9/18/18
f 2/19/19 1/20/20 9/21/21
f 9/22/22 1/23/23 5/24/24
f 9/25/25 6/26/26 2/27/27
f 10/28/28 4/29/29 3/30/30
f 7/31/31 10/32/32 3/33/33
f 10/34/34 8/35/35 4/36/36
f 12/37/37 14/38/38 15/39/39
f 12/40/40 15/41/41 17/42/42
f 13/43/43 11/44/44 18/45/45
f 13/46/46 18/47/47 16/48/48
f 11/49/49 12/50/50 17/51/51
f 11/52/52 17/53/53 18/54/54
f 16/55/55 18/56/56 17/57/57
f 16/58/58 17/59/59 15/60/60
f 15/61/61 14/62/62 21/63/63
f 15/64/64 21/65/65 20/66/66
f 16/67/67 15/68/68 20/69/69
f 16/70/70 20/71/71 19/72/72
f 13/73/73 16/74/74 19/75/75
f 13/76/76 19/77/77 22/78/78
f 14/79/79 13/80/80 22/81/81
f 14/82/82 22/83/83 21/84/84
f 21/85/85 22/86/86 23/87/87
f 21/88/88 23/89/89 24/90/90
f 22/91/91 19/92/92 26/93/93
f 22/94/94 26/95/95 23/96/96
f 19/97/97 20/98/98 25/99/99
f 19/100/100 25/101/101 26/102/102
f 20/103/103 21/104/104 24/105/105
f 20/106/106 24/107/107 25/108/108
f 25/109/109 24/110/110 29/111/111
f 25/112/112 29/113/113 28/114/114
f 26/115/115 25/116/116 28/117/117
f 26/118/118 28/119/119 27/120/120
f 23/121/121 26/122/122 27/123/123
f 23/124/124 27/125/125 30/126/126
f 24/127/127 23/128/128 30/129/129
f 24/130/130 30/131/131 29/132/132
f 29/133/133 30/134/134 27/135/135
f 29/136/136 27/137/137 28/138/138
f 3/139/139 2/140/140 31/141/141
f 3/142/142 31/143/143 32/144/144
f 2/145/145 6/146/146 33/147/147
f 2/148/148 33/149/149 31/150/150
f 7/151/151 3/152/152 32/153/153
f 7/154/154 32/155/155 34/156/156
f 6/157/157 7/158/158 34/159/159
f 6/160/160 34/161/161 33/162/162
f 33/163/163 34/164/164 35/165/165
f 33/166/166 35/167/167 36/168/168
f 34/169/169 32/170/170 37/171/171
f 34/172/172 37/173/173 35/174/174
f 31/175/175 33/176/176 36/177/177
f 31/178/178 36/179/179 38/180/180
f 32/181/181 31/182/182 38/183/183
f 32/184/184 38/185/185 37/186/186
f 38/187/187 36/188/188 35/189/189
f 38/190/190 35/191/191 37/192/192
f 9/193/193 39/194/194 40/195/195
f 9/196/196 40/197/197 10/198/198
f 39/199/199 12/200/200 11/201/201
f 39/202/202 11/203/203 40/204/204
f 10/205/205 40/206/206 41/207/207
f 10/208/208 41/209/209 8/210/210
f 40/211/211 11/212/212 13/213/213
f 40/214/214 13/215/215 41/216/216
f 5/217/217 42/218/218 39/219/219
f 5/220/220 39/221/221 9/222/222
f 42/223/223 14/224/224 12/225/225
f 42/226/226 12/227/227 39/228/228
f 8/229/229 41/230/230 42/231/231
f 8/232/232 42/233/233 5/234/234
f 41/235/235 13/236/236 14/237/237
f 41/238/238 14/239/239 42/240/240
