# Wavefront OBJ
# Created by fragMOTION
# http://www.fragmosoft.com

mtllib struik.mtl
# 96 vertices
v -37.8708 105.86 -47.6721
v -58.1178 68.2418 -51.5985
v -27.2723 68.2418 11.6484
v -14.5491 107.483 -4.13477
v 29.5924 68.2418 71.1635
v 18.7805 105.818 31.0341
v -80.7256 19.3121 -55.3703
v -42.3672 19.3121 22.0592
v 29.938 19.3121 82.7052
v -48.2515 -15.504 -53.6902
v -18.5061 -15.504 8.01759
v 27.5699 -15.504 57.2756
v -58.5487 105.86 -6.57171
v -76.7569 68.2418 3.11447
v -12.9899 68.2418 32.8699
v -13.0299 107.483 12.5971
v 63.6933 68.2418 52.3315
v 35.003 105.818 18.9648
v -96.7028 19.3122 14.406
v -18.1734 19.3121 50.459
v 76.1837 19.3121 52.109
v -71.187 -15.5039 0.888931
v -9.24347 -15.5039 30.1402
v 57.5611 -15.504 39.4402
v 44.9841 105.86 41.0275
v 65.5981 68.2418 41.677
v 25.0674 68.2418 -15.8458
v 15.022 107.483 1.76333
v -40.5553 68.2418 -65.5379
v -23.4863 105.818 -27.6445
v 88.5181 19.3121 41.7978
v 38.3103 19.3121 -28.5291
v -42.7358 19.3121 -76.8771
v 56.1912 -15.504 45.3144
v 16.9918 -15.504 -10.8644
v -36.3453 -15.504 -52.1499
v 63.8051 103.853 -17.8014
v 77.5291 65.5738 -18.0953
v 18.6887 66.7977 20.4783
v 23.8608 105.341 11.2551
v -34.7319 57.1298 82.3526
v -8.15001 98.2397 46.9673
v 80.556 29.6631 -43.8282
v 8.56281 30.9299 3.94273
v -44.868 15.4973 80.1855
v 63.2228 -6.05181 -39.2449
v 5.78978 -4.72184 -1.93108
v -38.4933 -12.3394 48.3713
v -54.7546 105.86 -30.9608
v -71.8107 68.2418 -19.3657
v -5.20429 68.2418 3.33217
v -7.43252 107.483 -16.8179
v 71.6187 68.2418 -13.1
v 41.0071 105.818 -15.6725
v -90.4212 19.3121 -5.987
v -8.4587 19.3121 21.378
v 83.5464 19.3121 -1.48759
v -71.4323 -15.5039 -10.913
v -0.509848 -15.504 17.0902
v 60.7251 -15.504 13.5145
v -53.6972 105.86 46.2385
v -84.135 68.2418 34.5296
v -20.5866 68.2418 4.31039
v -36.2432 107.483 -8.56813
v 39.4874 68.2419 -51.9637
v -0.74688 105.818 -41.5487
v -92.3006 19.3121 22.8527
v -10.3254 19.3121 19.5074
v 47.1079 19.3121 -65.0131
v -77.9656 -15.504 40.3202
v -15.2344 -15.504 19.5023
v 33.7438 -15.5039 -34.4013
v 28.9403 105.86 -55.1028
v 16.9123 68.2418 -71.8565
v -4.07303 68.2418 -4.69081
v 16.0134 107.483 -7.43416
v -3.576 68.2418 77.622
v 16.1085 105.818 41.0189
v 3.06146 19.3121 -90.1183
v -22.1963 19.3121 -7.48216
v -11.2476 19.3121 86.2521
v 8.47191 -15.504 -71.2617
v -12.2569 -15.504 -5.97039
v -12.5644 -15.504 61.4777
v 16.3675 105.258 57.6121
v 36.8755 67.6402 59.7989
v 0.752696 67.6401 -0.589364
v -10.5794 106.881 16.2206
v -45.8963 67.64 -57.0476
v -46.7846 105.216 -15.9802
v 59.7226 18.7105 61.6306
v 14.9056 18.7104 -12.2486
v -62.3045 18.7103 -66.5126
v 42.0536 -16.1056 53.1071
v 7.15798 -16.1057 -5.84147
v -42.9478 -16.1058 -50.994
# 84 texture vertices
vt 0.097584 0.641261
vt 0.108197 0.911955
vt 0.501232 0.613749
vt 0.49441 0.252466
vt 0.517182 0.925081
vt 0.965367 0.648994
vt 0.928906 0.27103
vt 0.732045 0.972087
vt 0.033735 0.27528
vt 0.503185 0.028912
vt 0.895238 0.048982
vt 0.084302 0.070484
vt 0.084731 0.647765
vt 0.095691 0.927299
vt 0.501561 0.619354
vt 0.494516 0.246274
vt 0.518032 0.940854
vt 0.980854 0.65575
vt 0.943202 0.265443
vt 0.739911 0.989395
vt 0.018797 0.269832
vt 0.503577 0.015419
vt 0.908435 0.036144
vt 0.071016 0.058348
vt 0.091235 0.650016
vt 0.101809 0.919718
vt 0.493405 0.622604
vt 0.486608 0.262644
vt 0.509297 0.932797
vt 0.955841 0.65772
vt 0.919514 0.281139
vt 0.723373 0.979631
vt 0.027619 0.285374
vt 0.495351 0.039908
vt 0.885969 0.059904
vt 0.078002 0.081328
vt 0.091931 0.645924
vt 0.1027 0.920581
vt 0.501488 0.618009
vt 0.494567 0.251437
vt 0.517672 0.9339
vt 0.972419 0.65377
vt 0.935424 0.270272
vt 0.73568 0.981594
vt 0.027147 0.274585
vt 0.50347 0.02461
vt 0.901264 0.044973
vt 0.078455 0.06679
vt 0.078127 0.644108
vt 0.089136 0.924894
vt 0.496823 0.61557
vt 0.489747 0.240818
vt 0.513368 0.93851
vt 0.978263 0.652129
vt 0.940443 0.260074
vt 0.736242 0.987268
vt 0.011897 0.264483
vt 0.498849 0.008929
vt 0.90552 0.029747
vt 0.06435 0.052051
vt 0.079967 0.652054
vt 0.09093 0.931665
vt 0.496912 0.623636
vt 0.489865 0.250452
vt 0.513388 0.945224
vt 0.976337 0.660042
vt 0.938674 0.269627
vt 0.735328 0.993778
vt 0.014015 0.274017
vt 0.498929 0.019534
vt 0.903898 0.040264
vt 0.066248 0.062475
vt 0.082886 0.643984
vt 0.093888 0.924586
vt 0.501308 0.615465
vt 0.494237 0.240959
vt 0.517843 0.938193
vt 0.982432 0.652
vt 0.944636 0.260202
vt 0.74057 0.986919
vt 0.0167 0.264608
vt 0.503333 0.009223
vt 0.909737 0.030026
vt 0.069118 0.052316
# 96 normals
vn -0.813535 0.414292 0.408072
vn -0.834872 0.368034 0.409317
vn -0.752373 0.361197 0.550883
vn -0.6966 0.457273 0.552856
vn -0.669385 0.36765 0.645567
vn -0.626227 0.477773 0.616095
vn -0.844167 -0.339733 0.414684
vn -0.792489 -0.124705 0.597001
vn -0.67169 0.0132272 0.740714
vn -0.696818 -0.633737 0.335892
vn -0.66264 -0.626556 0.410287
vn -0.577206 -0.538742 0.613669
vn -0.375624 0.414293 0.829016
vn -0.391425 0.368035 0.843408
vn -0.278853 0.324496 0.903849
vn -0.224175 0.506223 0.832757
vn -0.191775 0.35339 0.915608
vn -0.0810535 0.626482 0.77521
vn -0.404607 -0.271161 0.873364
vn -0.240374 -0.0656785 0.968456
vn -0.0971917 -0.0214286 0.995035
vn -0.355727 -0.553168 0.753302
vn -0.277003 -0.541695 0.793622
vn -0.0674761 -0.431487 0.899592
vn 0.738105 0.414293 -0.532506
vn 0.75897 0.368034 -0.537136
vn 0.654965 0.361197 -0.663745
vn 0.599591 0.457274 -0.656804
vn 0.557949 0.36765 -0.743994
vn 0.520039 0.477773 -0.70802
vn 0.767292 -0.339733 -0.543916
vn 0.687219 -0.124704 -0.715667
vn 0.545061 0.0132275 -0.838292
vn 0.634382 -0.633736 -0.442648
vn 0.588786 -0.626556 -0.510645
vn 0.472032 -0.538742 -0.697813
vn -0.564801 -0.150524 -0.811383
vn -0.525503 0.271669 -0.806253
vn -0.682324 0.134237 -0.71862
vn -0.692737 -0.0936112 -0.715089
vn -0.753311 0.0167458 -0.657451
vn -0.72917 -0.109906 -0.675449
vn -0.52523 0.275467 -0.805141
vn -0.655111 0.36033 -0.664072
vn -0.78118 0.340904 -0.523012
vn -0.535848 0.153514 -0.830241
vn -0.615749 0.16639 -0.770174
vn -0.780281 0.26864 -0.564796
vn -0.283936 0.414292 0.864721
vn -0.298092 0.368034 0.880734
vn -0.0439413 0.384476 0.922089
vn -0.0374535 0.323732 0.945407
vn 0.124366 0.265488 0.956059
vn -0.0218716 0.0505404 0.998483
vn -0.333105 -0.0508024 0.94152
vn -0.0689719 0.173786 0.982365
vn 0.221101 0.282695 0.93338
vn -0.348556 -0.315004 0.882769
vn -0.205039 -0.207774 0.956446
vn 0.148761 0.07287 0.986185
vn 0.756154 -0.0606779 0.651575
vn 0.294381 -0.154484 0.94312
vn 0.685579 0.175794 0.706455
vn 0.705863 0.46591 0.533559
vn 0.656965 0.292585 0.694831
vn 0.609879 0.477773 0.632282
vn 0.124179 0.09731 0.987477
vn 0.522198 0.0931577 0.847721
vn 0.774716 0.141167 0.616349
vn 0.269385 0.518172 0.811745
vn 0.38434 0.150018 0.910921
vn 0.784844 0.0354801 0.618677
vn -0.871706 0.414293 -0.261706
vn -0.888076 0.368035 -0.275447
vn -0.925262 0.361198 -0.115872
vn -0.886059 0.457274 -0.0761522
vn -0.929911 0.367651 0.00994676
vn -0.878296 0.477774 0.0181416
vn -0.952497 -0.0760685 -0.294895
vn -0.990917 0.0793156 -0.108595
vn -0.98523 0.152394 0.0780905
vn -0.909861 -0.297843 -0.288864
vn -0.938853 -0.28501 -0.193193
vn -0.985319 -0.161196 0.0562396
vn 0.775802 0.414293 -0.475913
vn 0.796955 0.368035 -0.478972
vn 0.747836 0.313737 -0.585073
vn 0.656822 0.513374 -0.552297
vn 0.692212 0.341482 -0.635793
vn 0.488796 0.648871 -0.583134
vn 0.854369 -0.0760688 -0.51407
vn 0.740993 0.0793153 -0.666812
vn 0.645433 0.0552147 -0.761819
vn 0.821472 -0.297844 -0.486284
vn 0.76942 -0.285011 -0.571631
vn 0.614312 -0.161197 -0.772422
usemtl Texture
g str8_1
s 1
f 2/1/2 3/3/3 1/2/1
f 2/1/2 8/4/8 3/3/3
f 3/3/3 4/5/4 1/2/1
f 3/3/3 5/6/5 4/5/4
f 3/3/3 9/7/9 5/6/5
f 5/6/5 6/8/6 4/5/4
f 7/9/7 8/4/8 2/1/2
f 7/9/7 11/10/11 8/4/8
f 8/4/8 9/7/9 3/3/3
f 8/4/8 12/11/12 9/7/9
f 10/12/10 11/10/11 7/9/7
f 11/10/11 12/11/12 8/4/8
f 14/13/14 15/15/15 13/14/13
f 14/13/14 20/16/20 15/15/15
f 15/15/15 16/17/16 13/14/13
f 15/15/15 17/18/17 16/17/16
f 15/15/15 21/19/21 17/18/17
f 17/18/17 18/20/18 16/17/16
f 19/21/19 20/16/20 14/13/14
f 19/21/19 23/22/23 20/16/20
f 20/16/20 21/19/21 15/15/15
f 20/16/20 24/23/24 21/19/21
f 22/24/22 23/22/23 19/21/19
f 23/22/23 24/23/24 20/16/20
f 26/1/26 27/3/27 25/2/25
f 26/1/26 32/4/32 27/3/27
f 27/3/27 28/5/28 25/2/25
f 27/3/27 29/6/29 28/5/28
f 27/3/27 33/7/33 29/6/29
f 29/6/29 30/8/30 28/5/28
f 31/9/31 32/4/32 26/1/26
f 31/9/31 35/10/35 32/4/32
f 32/4/32 33/7/33 27/3/27
f 32/4/32 36/11/36 33/7/33
f 34/12/34 35/10/35 31/9/31
f 35/10/35 36/11/36 32/4/32
f 38/25/38 39/27/39 37/26/37
f 38/25/38 44/28/44 39/27/39
f 39/27/39 40/29/40 37/26/37
f 39/27/39 41/30/41 40/29/40
f 39/27/39 45/31/45 41/30/41
f 41/30/41 42/32/42 40/29/40
f 43/33/43 44/28/44 38/25/38
f 43/33/43 47/34/47 44/28/44
f 44/28/44 45/31/45 39/27/39
f 44/28/44 48/35/48 45/31/45
f 46/36/46 47/34/47 43/33/43
f 47/34/47 48/35/48 44/28/44
f 50/37/50 51/39/51 49/38/49
f 50/37/50 56/40/56 51/39/51
f 51/39/51 52/41/52 49/38/49
f 51/39/51 53/42/53 52/41/52
f 51/39/51 57/43/57 53/42/53
f 53/42/53 54/44/54 52/41/52
f 55/45/55 56/40/56 50/37/50
f 55/45/55 59/46/59 56/40/56
f 56/40/56 57/43/57 51/39/51
f 56/40/56 60/47/60 57/43/57
f 58/48/58 59/46/59 55/45/55
f 59/46/59 60/47/60 56/40/56
f 62/49/62 63/51/63 61/50/61
f 62/49/62 68/52/68 63/51/63
f 63/51/63 64/53/64 61/50/61
f 63/51/63 65/54/65 64/53/64
f 63/51/63 69/55/69 65/54/65
f 65/54/65 66/56/66 64/53/64
f 67/57/67 68/52/68 62/49/62
f 67/57/67 71/58/71 68/52/68
f 68/52/68 69/55/69 63/51/63
f 68/52/68 72/59/72 69/55/69
f 70/60/70 71/58/71 67/57/67
f 71/58/71 72/59/72 68/52/68
f 74/61/74 75/63/75 73/62/73
f 74/61/74 80/64/80 75/63/75
f 75/63/75 76/65/76 73/62/73
f 75/63/75 77/66/77 76/65/76
f 75/63/75 81/67/81 77/66/77
f 77/66/77 78/68/78 76/65/76
f 79/69/79 80/64/80 74/61/74
f 79/69/79 83/70/83 80/64/80
f 80/64/80 81/67/81 75/63/75
f 80/64/80 84/71/84 81/67/81
f 82/72/82 83/70/83 79/69/79
f 83/70/83 84/71/84 80/64/80
f 86/73/86 87/75/87 85/74/85
f 86/73/86 92/76/92 87/75/87
f 87/75/87 88/77/88 85/74/85
f 87/75/87 89/78/89 88/77/88
f 87/75/87 93/79/93 89/78/89
f 89/78/89 90/80/90 88/77/88
f 91/81/91 92/76/92 86/73/86
f 91/81/91 95/82/95 92/76/92
f 92/76/92 93/79/93 87/75/87
f 92/76/92 96/83/96 93/79/93
f 94/84/94 95/82/95 91/81/91
f 95/82/95 96/83/96 92/76/92
