# Wavefront OBJ
# Created by fragMOTION
# http://www.fragmosoft.com

mtllib grass.mtl
# 189 vertices
v 79.3261 113.707 100.561
v 98.7771 126.976 12.4462
v 92.8111 138.772 -62.5348
v 130.286 49.2286 109.172
v 98.777 63.2102 12.4462
v 68.0704 75.0068 -43.851
v 103.618 -5.80581 116.92
v 98.777 -5.80579 12.4462
v 91.3819 -5.80578 -43.3194
v 10.2975 113.707 27.0158
v 99.4144 126.976 12.8488
v 167.003 138.772 -20.1603
v 20.946 49.2285 77.5897
v 99.4145 63.2102 12.8488
v 140.557 75.0068 -36.3406
v 3.97034 -5.80586 55.611
v 99.4145 -5.80579 12.8487
v 148.599 -5.80575 -14.4537
v 167.465 113.707 70.6571
v 98.1955 126.976 12.8281
v 28.8847 138.772 -16.3914
v 198.568 49.2286 29.3809
v 98.1955 63.2102 12.8281
v 34.0825 75.0068 14.1728
v 193.17 -5.80578 56.6224
v 98.1955 -5.80579 12.8281
v 45.2853 -5.80579 -6.2773
v -81.5546 113.707 50.7227
v -62.1036 126.976 -37.392
v -68.0696 138.772 -112.373
v -30.5942 49.2286 59.3337
v -62.1037 63.2102 -37.392
v -92.8103 75.0068 -93.6892
v -57.2627 -5.80581 67.0818
v -62.1037 -5.80579 -37.392
v -69.4988 -5.80578 -93.1577
v -150.583 113.707 -22.8224
v -61.4663 126.976 -36.9894
v 6.12186 138.772 -69.9985
v -139.935 49.2285 27.7515
v -61.4662 63.2102 -36.9894
v -20.324 75.0068 -86.1788
v -156.91 -5.80586 5.77276
v -61.4662 -5.80579 -36.9895
v -12.2821 -5.80574 -64.2919
v 6.58472 113.707 20.8189
v -62.6852 126.976 -37.0101
v -131.996 138.772 -66.2296
v 37.6876 49.2286 -20.4573
v -62.6852 63.2102 -37.0101
v -126.798 75.0068 -35.6654
v 32.2898 -5.80579 6.78425
v -62.6852 -5.80579 -37.0101
v -115.595 -5.80579 -56.1155
v -76.4475 108.139 155.363
v -56.9966 121.408 67.248
v -62.9626 133.205 -7.73306
v -25.4872 43.6612 163.974
v -56.9966 57.6429 67.248
v -87.7032 69.4394 10.9507
v -52.1556 -11.3732 171.722
v -56.9967 -11.3732 67.248
v -64.3918 -11.3732 11.4823
v -145.476 108.139 81.8176
v -56.3592 121.408 67.6506
v 11.2289 133.205 34.6415
v -134.828 43.6612 132.391
v -56.3592 57.6429 67.6505
v -15.2169 69.4394 18.4612
v -151.803 -11.3732 110.413
v -56.3591 -11.3732 67.6505
v -7.17503 -11.3731 40.3481
v 11.6918 108.139 125.459
v -57.5782 121.408 67.6298
v -126.889 133.205 38.4104
v 42.7946 43.6613 84.1827
v -57.5782 57.6429 67.6298
v -121.691 69.4394 68.9745
v 37.3968 -11.3732 111.424
v -57.5782 -11.3732 67.6298
v -110.488 -11.3732 48.5245
v 12.4979 113.707 165.158
v 31.9489 126.976 77.0438
v 25.9829 138.772 2.06268
v 63.4583 49.2286 173.769
v 31.9489 63.2102 77.0437
v 1.24225 75.0068 20.7465
v 36.7899 -5.80581 181.518
v 31.9489 -5.80579 77.0437
v 24.5537 -5.80578 21.2781
v -56.5306 113.707 91.6133
v 32.5863 126.976 77.4463
v 100.174 138.772 44.4372
v -45.8822 49.2285 142.187
v 32.5863 63.2102 77.4463
v 73.7286 75.0068 28.2569
v -62.8578 -5.80586 120.208
v 32.5864 -5.80579 77.4462
v 81.7705 -5.80575 50.1438
v 100.637 113.707 135.255
v 31.3673 126.976 77.4256
v -37.9434 138.772 48.2061
v 131.74 49.2286 93.9785
v 31.3673 63.2102 77.4256
v -32.7456 75.0068 78.7703
v 126.342 -5.80578 121.22
v 31.3673 -5.80579 77.4256
v -21.5428 -5.80579 58.3202
v -29.0033 113.707 5.92556
v -9.55235 126.976 -82.1891
v -15.5183 138.772 -157.17
v 21.957 49.2286 14.5366
v -9.5524 63.2102 -82.1891
v -40.259 75.0068 -138.486
v -4.71139 -5.80581 22.2847
v -9.55242 -5.80579 -82.1891
v -16.9476 -5.80578 -137.955
v -98.0319 113.707 -67.6195
v -8.91498 126.976 -81.7865
v 58.6731 138.772 -114.796
v -87.3835 49.2285 -17.0456
v -8.91495 63.2102 -81.7866
v 32.2273 75.0068 -130.976
v -104.359 -5.80586 -39.0244
v -8.91491 -5.80579 -81.7866
v 40.2692 -5.80574 -109.089
v 59.136 113.707 -23.9782
v -10.1339 126.976 -81.8073
v -79.4447 138.772 -111.027
v 90.2388 49.2286 -65.2544
v -10.134 63.2102 -81.8073
v -74.2469 75.0068 -80.4626
v 84.8411 -5.80578 -38.0129
v -10.134 -5.80579 -81.8073
v -63.0441 -5.80579 -100.913
v 45.6285 125.921 53.8941
v 65.0794 139.19 -34.2205
v 59.1134 150.987 -109.202
v 96.5888 61.4429 62.5052
v 65.0794 75.4245 -34.2205
v 34.3727 87.2211 -90.5178
v 69.9204 6.40849 70.2532
v 65.0794 6.40851 -34.2205
v 57.6842 6.40852 -89.9862
v -23.4001 125.921 -19.6509
v 65.7168 139.19 -33.818
v 133.305 150.987 -66.827
v -12.7517 61.4428 30.9229
v 65.7168 75.4245 -33.818
v 106.859 87.2211 -83.0074
v -29.7273 6.40843 8.94422
v 65.7169 6.40851 -33.818
v 114.901 6.40855 -61.1205
v 133.768 125.921 23.9904
v 64.4978 139.19 -33.8387
v -4.81291 150.987 -63.0581
v 164.871 61.4429 -17.2858
v 64.4978 75.4245 -33.8387
v 0.384857 87.2211 -32.494
v 159.473 6.40851 9.95569
v 64.4978 6.40851 -33.8387
v 11.5877 6.4085 -52.9441
v -19.4745 113.707 87.4454
v -0.023544 126.976 -0.669205
v -5.98954 138.772 -75.6503
v 31.4858 49.2286 96.0565
v -0.023582 63.2102 -0.669209
v -30.7302 75.0068 -56.9665
v 4.81742 -5.80581 103.805
v -0.023605 -5.80579 -0.669228
v -7.41875 -5.80578 -56.4349
v -88.5031 113.707 13.9004
v 0.613838 126.976 -0.266651
v 68.2019 138.772 -33.2757
v -77.8547 49.2285 64.4742
v 0.613861 63.2102 -0.266693
v 41.7561 75.0068 -49.4561
v -94.8303 -5.80586 42.4955
v 0.613899 -5.80579 -0.266739
v 49.798 -5.80574 -27.5692
v 68.6648 113.707 57.5417
v -0.605141 126.976 -0.287395
v -69.9159 138.772 -29.5068
v 99.7677 49.2286 16.2655
v -0.605148 63.2102 -0.287392
v -64.7181 75.0068 1.05731
v 94.3699 -5.80578 43.507
v -0.605148 -5.80579 -0.287392
v -53.5153 -5.80579 -19.3927
# 9 texture vertices
vt 1 1
vt 1 0.5
vt 0.5 0.5
vt 0.5 1
vt 0 0.5
vt 0 1
vt 1 0
vt 0.5 0
vt 0 0
# 189 normals
vn -0.946718 -0.321094 -0.0249719
vn -0.980197 0.139127 0.140917
vn -0.909976 0.392368 0.134134
vn -0.979335 -0.0583134 0.193657
vn -0.961968 -0.149217 0.228806
vn -0.930586 0.0503282 0.362597
vn -0.896824 0.440431 0.0415566
vn -0.974517 0.151184 0.165713
vn -0.950671 -0.126861 0.283073
vn -0.323443 -0.321094 -0.890103
vn -0.49007 0.139127 -0.860509
vn -0.458043 0.392367 -0.797649
vn -0.53883 -0.0583134 -0.840394
vn -0.565178 -0.149217 -0.811362
vn -0.678184 0.0503279 -0.733167
vn -0.36708 0.440431 -0.819312
vn -0.511063 0.151184 -0.846143
vn -0.611539 -0.12686 -0.780978
vn -0.457968 -0.321095 0.828953
vn -0.326111 0.139127 0.935038
vn -0.299809 0.392367 0.869576
vn -0.278894 -0.0583137 0.95855
vn -0.239696 -0.149218 0.959312
vn -0.106478 0.0503278 0.993041
vn -0.37594 0.440431 0.815285
vn -0.301484 0.151184 0.941409
vn -0.186321 -0.126861 0.974264
vn -0.946718 -0.321094 -0.0249719
vn -0.980197 0.139127 0.140917
vn -0.909976 0.392368 0.134134
vn -0.979335 -0.0583132 0.193657
vn -0.961968 -0.149217 0.228806
vn -0.930586 0.0503281 0.362597
vn -0.896824 0.440431 0.0415564
vn -0.974516 0.151185 0.165713
vn -0.950671 -0.12686 0.283073
vn -0.323443 -0.321094 -0.890103
vn -0.49007 0.139127 -0.860509
vn -0.458043 0.392368 -0.797649
vn -0.538831 -0.0583135 -0.840393
vn -0.565178 -0.149218 -0.811362
vn -0.678184 0.0503279 -0.733167
vn -0.36708 0.440431 -0.819312
vn -0.511063 0.151184 -0.846143
vn -0.611539 -0.126861 -0.780978
vn -0.457968 -0.321095 0.828953
vn -0.326111 0.139127 0.935038
vn -0.299809 0.392367 0.869576
vn -0.278894 -0.0583136 0.95855
vn -0.239696 -0.149218 0.959312
vn -0.106478 0.0503279 0.993041
vn -0.37594 0.440431 0.815285
vn -0.301484 0.151184 0.941409
vn -0.186321 -0.126861 0.974264
vn -0.946718 -0.321094 -0.0249719
vn -0.980197 0.139127 0.140917
vn -0.909976 0.392368 0.134134
vn -0.979335 -0.0583132 0.193657
vn -0.961968 -0.149217 0.228806
vn -0.930586 0.0503281 0.362597
vn -0.896824 0.440431 0.0415566
vn -0.974516 0.151185 0.165713
vn -0.950671 -0.12686 0.283073
vn -0.323443 -0.321094 -0.890103
vn -0.49007 0.139127 -0.860509
vn -0.458043 0.392368 -0.797649
vn -0.53883 -0.0583135 -0.840394
vn -0.565178 -0.149218 -0.811362
vn -0.678184 0.0503279 -0.733167
vn -0.36708 0.440431 -0.819312
vn -0.511063 0.151184 -0.846143
vn -0.611539 -0.126861 -0.780978
vn -0.457968 -0.321095 0.828953
vn -0.326111 0.139127 0.935038
vn -0.299808 0.392367 0.869576
vn -0.278894 -0.0583136 0.95855
vn -0.239696 -0.149218 0.959312
vn -0.106478 0.0503278 0.993041
vn -0.37594 0.440431 0.815285
vn -0.301484 0.151184 0.941409
vn -0.186321 -0.126861 0.974264
vn -0.946718 -0.321094 -0.0249722
vn -0.980197 0.139127 0.140917
vn -0.909976 0.392368 0.134134
vn -0.979335 -0.0583134 0.193657
vn -0.961968 -0.149217 0.228806
vn -0.930586 0.0503282 0.362597
vn -0.896824 0.440431 0.0415565
vn -0.974517 0.151184 0.165713
vn -0.950671 -0.126861 0.283073
vn -0.323443 -0.321094 -0.890103
vn -0.49007 0.139127 -0.860509
vn -0.458043 0.392368 -0.797649
vn -0.53883 -0.0583134 -0.840394
vn -0.565178 -0.149218 -0.811362
vn -0.678184 0.0503279 -0.733167
vn -0.36708 0.440431 -0.819312
vn -0.511063 0.151184 -0.846143
vn -0.611539 -0.126861 -0.780978
vn -0.457968 -0.321095 0.828953
vn -0.326111 0.139127 0.935038
vn -0.299809 0.392367 0.869576
vn -0.278894 -0.0583137 0.95855
vn -0.239696 -0.149218 0.959312
vn -0.106478 0.0503278 0.993041
vn -0.37594 0.440431 0.815285
vn -0.301484 0.151184 0.941409
vn -0.186321 -0.126861 0.974264
vn -0.946718 -0.321094 -0.024972
vn -0.980197 0.139127 0.140917
vn -0.909976 0.392368 0.134134
vn -0.979335 -0.0583133 0.193657
vn -0.961968 -0.149217 0.228806
vn -0.930586 0.0503282 0.362597
vn -0.896824 0.440431 0.0415564
vn -0.974516 0.151185 0.165713
vn -0.950671 -0.126861 0.283073
vn -0.323443 -0.321094 -0.890103
vn -0.49007 0.139127 -0.860509
vn -0.458043 0.392368 -0.797649
vn -0.53883 -0.0583136 -0.840394
vn -0.565178 -0.149218 -0.811362
vn -0.678184 0.0503279 -0.733167
vn -0.36708 0.440431 -0.819312
vn -0.511063 0.151184 -0.846143
vn -0.611539 -0.126861 -0.780978
vn -0.457968 -0.321095 0.828953
vn -0.326111 0.139127 0.935038
vn -0.299809 0.392367 0.869576
vn -0.278894 -0.0583136 0.95855
vn -0.239696 -0.149218 0.959312
vn -0.106478 0.0503277 0.993041
vn -0.37594 0.440431 0.815285
vn -0.301484 0.151184 0.941409
vn -0.186321 -0.126861 0.974264
vn -0.946718 -0.321094 -0.0249721
vn -0.980197 0.139127 0.140917
vn -0.909976 0.392368 0.134134
vn -0.979335 -0.0583133 0.193657
vn -0.961968 -0.149217 0.228806
vn -0.930586 0.0503282 0.362597
vn -0.896824 0.440431 0.0415564
vn -0.974517 0.151185 0.165713
vn -0.950671 -0.126861 0.283073
vn -0.323443 -0.321094 -0.890103
vn -0.49007 0.139127 -0.860509
vn -0.458043 0.392368 -0.797649
vn -0.53883 -0.0583133 -0.840394
vn -0.565178 -0.149218 -0.811362
vn -0.678184 0.0503279 -0.733167
vn -0.36708 0.440431 -0.819312
vn -0.511063 0.151184 -0.846143
vn -0.611539 -0.126861 -0.780978
vn -0.457968 -0.321095 0.828953
vn -0.326111 0.139127 0.935038
vn -0.299809 0.392368 0.869576
vn -0.278894 -0.0583136 0.95855
vn -0.239696 -0.149218 0.959312
vn -0.106478 0.0503278 0.993041
vn -0.37594 0.440431 0.815285
vn -0.301484 0.151184 0.941409
vn -0.186321 -0.126861 0.974264
vn -0.946718 -0.321094 -0.0249721
vn -0.980197 0.139127 0.140917
vn -0.909976 0.392368 0.134134
vn -0.979335 -0.0583134 0.193657
vn -0.961968 -0.149217 0.228806
vn -0.930586 0.0503282 0.362597
vn -0.896824 0.440431 0.0415564
vn -0.974517 0.151184 0.165713
vn -0.950671 -0.126861 0.283073
vn -0.323443 -0.321094 -0.890103
vn -0.49007 0.139127 -0.860509
vn -0.458043 0.392368 -0.797649
vn -0.53883 -0.0583134 -0.840394
vn -0.565178 -0.149218 -0.811362
vn -0.678184 0.0503279 -0.733167
vn -0.36708 0.440431 -0.819312
vn -0.511063 0.151184 -0.846143
vn -0.611539 -0.126861 -0.780978
vn -0.457968 -0.321095 0.828953
vn -0.326111 0.139127 0.935038
vn -0.299808 0.392367 0.869576
vn -0.278894 -0.0583137 0.95855
vn -0.239696 -0.149218 0.959312
vn -0.106478 0.0503278 0.993041
vn -0.37594 0.44043 0.815285
vn -0.301484 0.151184 0.941409
vn -0.186321 -0.126861 0.974264
usemtl Texture
g grass
s 1
f 1/1/1 5/3/5 4/2/4
f 2/4/2 5/3/5 1/1/1
f 2/4/2 6/5/6 5/3/5
f 3/6/3 6/5/6 2/4/2
f 4/2/4 8/8/8 7/7/7
f 5/3/5 8/8/8 4/2/4
f 5/3/5 9/9/9 8/8/8
f 6/5/6 9/9/9 5/3/5
f 10/1/10 14/3/14 13/2/13
f 11/4/11 14/3/14 10/1/10
f 11/4/11 15/5/15 14/3/14
f 12/6/12 15/5/15 11/4/11
f 13/2/13 17/8/17 16/7/16
f 14/3/14 17/8/17 13/2/13
f 14/3/14 18/9/18 17/8/17
f 15/5/15 18/9/18 14/3/14
f 19/1/19 23/3/23 22/2/22
f 20/4/20 23/3/23 19/1/19
f 20/4/20 24/5/24 23/3/23
f 21/6/21 24/5/24 20/4/20
f 22/2/22 26/8/26 25/7/25
f 23/3/23 26/8/26 22/2/22
f 23/3/23 27/9/27 26/8/26
f 24/5/24 27/9/27 23/3/23
f 28/1/28 32/3/32 31/2/31
f 29/4/29 32/3/32 28/1/28
f 29/4/29 33/5/33 32/3/32
f 30/6/30 33/5/33 29/4/29
f 31/2/31 35/8/35 34/7/34
f 32/3/32 35/8/35 31/2/31
f 32/3/32 36/9/36 35/8/35
f 33/5/33 36/9/36 32/3/32
f 37/1/37 41/3/41 40/2/40
f 38/4/38 41/3/41 37/1/37
f 38/4/38 42/5/42 41/3/41
f 39/6/39 42/5/42 38/4/38
f 40/2/40 44/8/44 43/7/43
f 41/3/41 44/8/44 40/2/40
f 41/3/41 45/9/45 44/8/44
f 42/5/42 45/9/45 41/3/41
f 46/1/46 50/3/50 49/2/49
f 47/4/47 50/3/50 46/1/46
f 47/4/47 51/5/51 50/3/50
f 48/6/48 51/5/51 47/4/47
f 49/2/49 53/8/53 52/7/52
f 50/3/50 53/8/53 49/2/49
f 50/3/50 54/9/54 53/8/53
f 51/5/51 54/9/54 50/3/50
f 55/1/55 59/3/59 58/2/58
f 56/4/56 59/3/59 55/1/55
f 56/4/56 60/5/60 59/3/59
f 57/6/57 60/5/60 56/4/56
f 58/2/58 62/8/62 61/7/61
f 59/3/59 62/8/62 58/2/58
f 59/3/59 63/9/63 62/8/62
f 60/5/60 63/9/63 59/3/59
f 64/1/64 68/3/68 67/2/67
f 65/4/65 68/3/68 64/1/64
f 65/4/65 69/5/69 68/3/68
f 66/6/66 69/5/69 65/4/65
f 67/2/67 71/8/71 70/7/70
f 68/3/68 71/8/71 67/2/67
f 68/3/68 72/9/72 71/8/71
f 69/5/69 72/9/72 68/3/68
f 73/1/73 77/3/77 76/2/76
f 74/4/74 77/3/77 73/1/73
f 74/4/74 78/5/78 77/3/77
f 75/6/75 78/5/78 74/4/74
f 76/2/76 80/8/80 79/7/79
f 77/3/77 80/8/80 76/2/76
f 77/3/77 81/9/81 80/8/80
f 78/5/78 81/9/81 77/3/77
f 82/1/82 86/3/86 85/2/85
f 83/4/83 86/3/86 82/1/82
f 83/4/83 87/5/87 86/3/86
f 84/6/84 87/5/87 83/4/83
f 85/2/85 89/8/89 88/7/88
f 86/3/86 89/8/89 85/2/85
f 86/3/86 90/9/90 89/8/89
f 87/5/87 90/9/90 86/3/86
f 91/1/91 95/3/95 94/2/94
f 92/4/92 95/3/95 91/1/91
f 92/4/92 96/5/96 95/3/95
f 93/6/93 96/5/96 92/4/92
f 94/2/94 98/8/98 97/7/97
f 95/3/95 98/8/98 94/2/94
f 95/3/95 99/9/99 98/8/98
f 96/5/96 99/9/99 95/3/95
f 100/1/100 104/3/104 103/2/103
f 101/4/101 104/3/104 100/1/100
f 101/4/101 105/5/105 104/3/104
f 102/6/102 105/5/105 101/4/101
f 103/2/103 107/8/107 106/7/106
f 104/3/104 107/8/107 103/2/103
f 104/3/104 108/9/108 107/8/107
f 105/5/105 108/9/108 104/3/104
f 109/1/109 113/3/113 112/2/112
f 110/4/110 113/3/113 109/1/109
f 110/4/110 114/5/114 113/3/113
f 111/6/111 114/5/114 110/4/110
f 112/2/112 116/8/116 115/7/115
f 113/3/113 116/8/116 112/2/112
f 113/3/113 117/9/117 116/8/116
f 114/5/114 117/9/117 113/3/113
f 118/1/118 122/3/122 121/2/121
f 119/4/119 122/3/122 118/1/118
f 119/4/119 123/5/123 122/3/122
f 120/6/120 123/5/123 119/4/119
f 121/2/121 125/8/125 124/7/124
f 122/3/122 125/8/125 121/2/121
f 122/3/122 126/9/126 125/8/125
f 123/5/123 126/9/126 122/3/122
f 127/1/127 131/3/131 130/2/130
f 128/4/128 131/3/131 127/1/127
f 128/4/128 132/5/132 131/3/131
f 129/6/129 132/5/132 128/4/128
f 130/2/130 134/8/134 133/7/133
f 131/3/131 134/8/134 130/2/130
f 131/3/131 135/9/135 134/8/134
f 132/5/132 135/9/135 131/3/131
f 136/1/136 140/3/140 139/2/139
f 137/4/137 140/3/140 136/1/136
f 137/4/137 141/5/141 140/3/140
f 138/6/138 141/5/141 137/4/137
f 139/2/139 143/8/143 142/7/142
f 140/3/140 143/8/143 139/2/139
f 140/3/140 144/9/144 143/8/143
f 141/5/141 144/9/144 140/3/140
f 145/1/145 149/3/149 148/2/148
f 146/4/146 149/3/149 145/1/145
f 146/4/146 150/5/150 149/3/149
f 147/6/147 150/5/150 146/4/146
f 148/2/148 152/8/152 151/7/151
f 149/3/149 152/8/152 148/2/148
f 149/3/149 153/9/153 152/8/152
f 150/5/150 153/9/153 149/3/149
f 154/1/154 158/3/158 157/2/157
f 155/4/155 158/3/158 154/1/154
f 155/4/155 159/5/159 158/3/158
f 156/6/156 159/5/159 155/4/155
f 157/2/157 161/8/161 160/7/160
f 158/3/158 161/8/161 157/2/157
f 158/3/158 162/9/162 161/8/161
f 159/5/159 162/9/162 158/3/158
f 163/1/163 167/3/167 166/2/166
f 164/4/164 167/3/167 163/1/163
f 164/4/164 168/5/168 167/3/167
f 165/6/165 168/5/168 164/4/164
f 166/2/166 170/8/170 169/7/169
f 167/3/167 170/8/170 166/2/166
f 167/3/167 171/9/171 170/8/170
f 168/5/168 171/9/171 167/3/167
f 172/1/172 176/3/176 175/2/175
f 173/4/173 176/3/176 172/1/172
f 173/4/173 177/5/177 176/3/176
f 174/6/174 177/5/177 173/4/173
f 175/2/175 179/8/179 178/7/178
f 176/3/176 179/8/179 175/2/175
f 176/3/176 180/9/180 179/8/179
f 177/5/177 180/9/180 176/3/176
f 181/1/181 185/3/185 184/2/184
f 182/4/182 185/3/185 181/1/181
f 182/4/182 186/5/186 185/3/185
f 183/6/183 186/5/186 182/4/182
f 184/2/184 188/8/188 187/7/187
f 185/3/185 188/8/188 184/2/184
f 185/3/185 189/9/189 188/8/188
f 186/5/186 189/9/189 185/3/185
